<svg width="1280" height="720" xmlns="http://www.w3.org/2000/svg" xmlns:xlink="http://www.w3.org/1999/xlink" overflow="hidden"><defs><clipPath id="clip0"><rect x="0" y="0" width="1280" height="720"/></clipPath><clipPath id="clip1"><rect x="168" y="18" width="683" height="684"/></clipPath><clipPath id="clip2"><rect x="168" y="18" width="683" height="684"/></clipPath><clipPath id="clip3"><rect x="168" y="18" width="683" height="684"/></clipPath></defs><g clip-path="url(#clip0)"><rect x="0" y="0" width="1280" height="720" fill="#FFFFFF"/><g clip-path="url(#clip1)"><g clip-path="url(#clip2)"><g clip-path="url(#clip3)"><path d="M683 341.5C683 530.106 530.106 683 341.5 683 152.895 683-3.79141e-14 530.106-3.79141e-14 341.5-1.13743e-13 152.895 152.895-3.79141e-14 341.5-3.79141e-14 530.106-1.13743e-13 683 152.895 683 341.5ZM234.61 257.534 269.828 257.534C275.719 257.534 280.414 252.71 281.183 246.862 285.024 218.859 304.234 198.454 338.469 198.454 367.753 198.454 394.561 213.096 394.561 248.313 394.561 275.42 378.595 287.884 353.367 306.838 324.638 327.712 301.886 352.087 303.508 391.658L303.636 400.921C303.729 406.748 308.48 411.423 314.308 411.422L348.928 411.422C354.821 411.422 359.599 406.644 359.599 400.75L359.599 396.268C359.599 365.618 371.253 356.697 402.714 332.834 428.711 313.07 455.817 291.129 455.817 245.069 455.817 180.568 401.348 149.406 341.713 149.406 287.628 149.406 228.378 174.592 224.323 246.99 224.086 252.572 228.42 257.29 234.002 257.526 234.205 257.535 234.408 257.537 234.61 257.534ZM333.859 532.569C359.898 532.569 377.784 515.75 377.784 492.998 377.784 469.434 359.856 452.872 333.859 452.872 308.929 452.872 290.787 469.434 290.787 492.998 290.787 515.75 308.929 532.569 333.902 532.569Z" fill="#116789" transform="matrix(1 0 0 1.00146 168 18)"/></g></g></g></g></svg>