<?xml version="1.0" encoding="utf-8"?>
<!-- Generator: Adobe Illustrator 28.1.0, SVG Export Plug-In . SVG Version: 6.00 Build 0)  -->
<svg version="1.1"
	 id="Layer_1" xmlns:svg="http://www.w3.org/2000/svg" xmlns:dc="http://purl.org/dc/elements/1.1/" xmlns:rdf="http://www.w3.org/1999/02/22-rdf-syntax-ns#" xmlns:cc="http://creativecommons.org/ns#" xmlns:sodipodi="http://sodipodi.sourceforge.net/DTD/sodipodi-0.dtd" xmlns:inkscape="http://www.inkscape.org/namespaces/inkscape"
	 xmlns="http://www.w3.org/2000/svg" xmlns:xlink="http://www.w3.org/1999/xlink" x="0px" y="0px" viewBox="0 0 581 139.7"
	 style="enable-background:new 0 0 581 139.7;" xml:space="preserve">
<style type="text/css">
	.st0{fill:#0A5373;}
	.st1{fill:#3AB439;}
	.st2{fill:#FEFFFF;}
</style>
<sodipodi:namedview  bordercolor="#666666" borderopacity="1" fit-margin-bottom="0" fit-margin-left="0" fit-margin-right="0" fit-margin-top="0" gridtolerance="10" guidetolerance="10" id="namedview169" inkscape:current-layer="Layer_1" inkscape:cx="281.94296" inkscape:cy="69.365924" inkscape:pageopacity="0" inkscape:pageshadow="2" inkscape:window-height="1016" inkscape:window-maximized="1" inkscape:window-width="1920" inkscape:window-x="0" inkscape:window-y="27" inkscape:zoom="1.6856283" objecttolerance="10" pagecolor="#ffffff" showgrid="false">
	</sodipodi:namedview>
<path id="path6" inkscape:connector-curvature="0" class="st0" d="M293.8,103.4c-36,0-71.9,0-107.9,0c-17.1,0-34.1,0-51.2,0
	c-0.5,0-1.2,0.2-1.6-0.1c-0.3-0.4-0.1-1-0.1-1.6c0-1,0-2,0-3c0-1.2-0.1-1.1,1.1-1.1c4.1,0,8.1,0,12.2,0c59.6,0,119.2,0,178.9,0
	c42.6,0,85.3,0.1,127.9-0.1c26-0.1,52.1,0,78.1-0.1c16.2,0,32.4,0,48.6,0c1.3,0,1.2-0.1,1.2,1.2c0,1.3,0,2.7,0,4
	c0,0.8,0,0.9-0.9,0.9c-3.7,0-7.4,0-11.2,0c-37.8,0-75.6,0.1-113.3,0c-40.4-0.1-80.8,0-121.1-0.1
	C320.9,103.4,307.4,103.4,293.8,103.4L293.8,103.4z"/>
<path id="path8" inkscape:connector-curvature="0" class="st0" d="M66.4,123.3c0.2-3.5,0.2-6.5,0.1-9.5c0-1.5,1.1-2.7,2.7-2.7
	c4.8,0.1,9.6,0.1,14.4,0.2c1.3,0,2.5,0,3.8,0c1.5,0,2.9-0.6,4.1-1.6c1.3-1,2-2.3,2.4-3.8s0.6-3,0.6-4.5c0-1-0.1-2,0.3-2.9
	c0.1-0.2,0-0.6,0-0.9c-0.1-2.4,0.4-4.8,0.3-7.2c0.4-1.5,0.2-3.1,0.4-4.6c0.1-1.1,0.2-2.2,0.2-3.3c0.1-1.3,1.2-2.2,2.4-2.2
	c1.6,0,3.2,0,4.8,0c0.2,0,0.5,0,0.7,0c0.8-0.1,1.3-0.8,1-1.6c-0.8-2.2-1.5-4.5-2.2-6.7c-0.6-1.9-1.3-3.7-2-5.6
	c-0.6-1.8-1.1-3.7-1.8-5.5c-0.8-2.2-1.5-4.5-2.3-6.7c-0.1-0.3-0.2-0.6-0.2-0.8c0.1-1.6-0.2-3.1-0.2-4.7c0-0.8-0.3-1.6-0.3-2.5
	c-0.1-1-0.3-2.1-0.6-3.1c-0.3-1.5-0.7-2.9-1.1-4.3c-0.7-2.8-1.9-5.5-3.2-8.1c-1.1-2.3-2.6-4.5-4.1-6.6c-0.7-1-1.6-1.9-2.4-2.9
	c-1.7-2.1-3.6-3.9-5.6-5.6c-2.6-2.1-5.4-3.9-8.4-5.5c-2.6-1.3-5.3-2.1-8-3.1c-1.5-0.5-3-0.7-4.5-1c-1-0.2-2.1-0.4-3.2-0.3
	c-1.1,0.1-2.1-0.4-3.2-0.3c-1.6,0.2-3.3,0.1-4.9,0.4C45.7,5.9,45,5.9,44.3,6c-1.9,0.3-3.9,0.8-5.8,1.3c-2.1,0.6-4.1,1.3-6.1,2.3
	c-1.6,0.8-3.1,1.6-4.6,2.5c-1.7,1-3.3,2.2-4.9,3.5c-1.5,1.2-2.9,2.5-4.2,3.8c-0.3,0.4-0.6,0.7-1,1.1c-1.6,1.5-2.8,3.3-4.1,5.1
	c-1.6,2.1-2.8,4.4-4,6.8c-0.6,1.1-0.9,2.3-1.4,3.5c-0.9,2.3-1.6,4.7-2.1,7.1c-0.2,1.1-0.3,2.3-0.5,3.4c-0.3,1.8-0.1,3.6-0.5,5.3
	c-0.1,0.2,0,0.5,0,0.8c0.3,2.1,0.1,4.2,0.2,6.2c0.2,3,0.4,6,1,8.9c0.6,3.3,1.7,6.5,3,9.7c1.4,3.6,3.1,7.1,5.1,10.5
	c1.4,2.4,2.8,4.8,3.8,7.4c0.8,2,1.3,4.1,1.2,6.3c-0.1,2.2,0.1,4.5-0.1,6.7c-0.5,3.9-0.1,7.8-0.4,11.7c-0.3,3.5-0.2,7-0.3,10.5
	c0,0.7-0.3,1.4-0.2,2.2c0,0.4-0.3,0.7-0.8,0.7c-1.1,0-2.1,0-3.2,0c-0.6,0-0.8-0.4-0.8-1.1c0-1.2,0-2.3,0.1-3.5
	c0.3-4.5,0.2-9,0.4-13.4c0.1-3.6,0.2-7.3,0.3-10.9c0-0.5,0.1-0.9,0.2-1.4c0.1-2.9-0.7-5.5-2.2-8c-0.9-1.6-1.8-3.3-2.7-4.9
	c-1.3-2.3-2.4-4.8-3.6-7.1c-1-1.9-1.6-4-2.4-6c-1.1-2.6-1.7-5.3-2.2-8c-0.2-1.3-0.5-2.6-0.6-4c-0.2-1.9-0.5-3.7-0.4-5.6
	c0-0.2,0-0.3-0.1-0.5C-0.1,58.4,0,57.8,0,57.2c0-2.4,0-4.8,0.1-7.2c0-0.8-0.2-1.8,0.6-2.4c0.1-0.1,0.1-0.2,0.1-0.4
	c0-0.8,0.1-1.6,0.2-2.4c0.2-1.6,0.5-3.2,0.9-4.8c0.3-1.4,0.6-2.9,1.1-4.3c0.5-1.4,1.1-2.7,1.6-4.1c0.2-0.6,0.5-1.2,0.8-1.8
	c1.4-3.3,3.3-6.3,5.4-9.1c2-2.7,4.2-5.1,6.6-7.3c2.8-2.6,5.8-4.8,9.1-6.5c1.2-0.6,2.3-1.5,3.6-2c2.1-0.8,4.1-1.7,6.3-2.4
	c1.9-0.7,3.9-1.2,5.9-1.5c1.5-0.3,3-0.5,4.5-0.5c0.2,0,0.5,0.1,0.6-0.1c0.4-0.5,1-0.4,1.5-0.4c2-0.1,4,0.1,6,0.1
	c0.3,0,0.6,0,0.7,0.2C56,0.8,56.5,0.7,57,0.7c0.8,0,1.6,0.2,2.4,0.3c1.9,0.2,3.7,0.7,5.5,1.2c1.3,0.3,2.5,0.9,3.8,1.4
	c2.4,1,4.8,2.1,7.1,3.4c2.1,1.3,4.1,2.6,6,4.1c2.4,1.9,4.6,4.1,6.6,6.4c2.6,3.1,4.9,6.4,6.7,10c0.8,1.6,1.7,3.2,2.3,5
	c0.7,2.2,1.5,4.4,2.1,6.6c0.5,1.8,0.8,3.7,1.1,5.5c0.1,1,0.2,2,0.3,3c0.1,1.4,0.1,2.9,0.2,4.3c0.1,0.9,0.5,1.8,0.9,2.6
	c0.7,1.8,1.2,3.6,1.8,5.5c0.6,1.8,1.3,3.5,1.8,5.2c0.6,1.7,1,3.4,1.6,5c0.7,2.2,1.5,4.3,2.3,6.5c0.3,0.7,0.5,1.5,0.5,2.3
	c-0.2,2.7-1.6,4.9-4.2,5.9c-0.3,0.1-0.6,0.1-0.9,0.1c-1.2,0-2.4,0-3.7,0c-0.5,0-0.6,0.1-0.6,0.6c-0.2,1.9-0.1,3.7-0.3,5.6
	c-0.2,1.8-0.2,3.7-0.3,5.5c-0.1,2.1-0.4,4.3-0.4,6.4c0,1.7-0.2,3.3-0.7,4.9c-1,2.9-2.8,5.2-5.5,6.7c-1.3,0.7-2.6,1.2-4,1.4
	c-2.2,0.3-4.3,0.1-6.5,0.1c-3.5,0-6.9,0-10.4-0.1c-0.7,0-0.7,0-0.7,0.7c0,4.9-0.1,9.9-0.1,14.8c0,0.2,0,0.5,0,0.7
	c0,0.6-0.3,0.9-0.9,0.9c-1,0-2.1,0-3.1,0c-0.5,0-0.8-0.3-0.9-0.9c0-0.1,0-0.3,0-0.4C66.4,129.1,66.4,126,66.4,123.3L66.4,123.3z"/>
<path id="path10" inkscape:connector-curvature="0" class="st0" d="M32.8,55.7c0,0.5,0,0.7,0,1c-0.1,1.1,0.1,1.7,1.3,2.2
	c1.6,0.7,2.3,2.6,2,4.6c-0.3,1.8-1.5,3.1-3.3,3.5c-2,0.4-3.9-0.3-4.8-1.9c-1-1.7-0.8-3.9,0.4-5.4c0.5-0.6,1.2-1,1.9-1.2
	c0.4-0.1,0.6-0.3,0.6-0.8c0.1-1.2,0-2.4,0-3.6c0-0.3,0-0.5,0-0.8c0-1,0-1-1-1.2c-4.5-0.8-8-3.2-10.5-7c-1.9-2.9-2.6-6.1-2.5-9.5
	c0.2-4.2,1.8-7.7,4.7-10.6c2.9-2.8,6.3-4.3,10.4-4.5c2.7-0.1,5.3,0.3,7.8,1.5c1.6,0.7,2.9,1.7,4.2,2.9c0.2,0.2,0.5,0.4,0.7,0.7
	c0.2,0.2,0.4,0.2,0.6,0.1c1.7-1.3,3.4-2.6,5.1-3.9c0.4-0.3,0.2-0.6,0.1-0.9c-0.4-1.7-0.2-3.2,0.9-4.5c1.3-1.5,3.5-1.9,5.3-1.2
	c1.9,0.8,2.9,2.6,2.7,4.6c-0.1,2.1-1.7,4.2-4.6,4.3c-1,0-1.9-0.2-2.7-0.8c-0.3-0.2-0.5-0.2-0.8,0.1c-1.6,1.2-3.1,2.3-4.7,3.5
	c-0.7,0.5-0.7,0.5-0.2,1.2c1.1,1.8,1.9,3.8,2.2,5.9c0.1,1,0.2,2,0.2,3c0,0.5,0.1,0.7,0.6,0.7c2.1,0.2,4.2,0.5,6.4,0.8
	c2.9,0.4,5.7,0.7,8.6,1.1c0.5,0.1,0.7-0.1,0.8-0.5c0.9-2.4,2.4-4.3,4.7-5.4c5.9-2.9,13,1,13.5,7.6c0.2,2.8-0.5,5.3-2.4,7.3
	c-1.6,1.7-3.5,2.6-5.9,2.9c-2.4,0.2-4.6-0.3-6.6-1.7c-0.4-0.3-0.6-0.2-0.9,0.1c-1.2,1.3-2.5,2.6-3.8,4c-1.1,1.1-2.2,2.3-3.3,3.4
	c-0.3,0.3-0.4,0.5-0.1,0.9c0.7,1.2,1.1,2.5,1.1,3.8c0,2.2-0.7,4.1-2.4,5.7c-1.4,1.3-3.1,1.9-4.9,1.9c-4.5-0.1-7.6-3.4-7.4-7.7
	c0-1.6,0.6-3.1,1.6-4.4c0.3-0.4,0.3-0.6,0-1c-1.9-2.2-3.7-4.3-5.5-6.5c-0.3-0.4-0.5-0.3-0.9-0.1c-1.6,1.2-3.4,2-5.4,2.4
	c-0.8,0.2-1.7,0.4-2.6,0.3c-0.3,0-0.6,0-0.9,0.1c-0.4,0.1-0.4,0.3-0.5,0.6C32.8,54,32.7,54.9,32.8,55.7z M46.6,36.4
	c0-7.5-6.1-13.6-13.4-13.7c-7.7-0.1-13.8,6.1-13.9,13.5c-0.1,7.8,6.2,13.7,13.4,13.9C40.2,50.2,46.6,43.9,46.6,36.4z M66.7,47.7
	c0-0.1-0.1-0.2-0.2-0.3c-0.2-0.4-0.5-0.8-0.7-1.2c-0.7-1.3-1-2.8-1-4.3c0-0.5-0.1-0.7-0.7-0.8c-0.7-0.1-1.4-0.2-2.1-0.2
	c-1.9-0.2-3.7-0.5-5.6-0.7c-2.3-0.3-4.7-0.6-7-0.9c-0.7-0.1-0.7-0.1-0.8,0.6c-0.7,2.9-2,5.5-4,7.6c-0.5,0.5-0.5,0.5,0,1
	c0.9,1.1,1.9,2.2,2.8,3.3c0.9,1.1,1.8,2.1,2.7,3.2c0.3,0.3,0.5,0.4,0.9,0.2c2.5-1.2,5-1,7.3,0.4c0.5,0.3,0.7,0.2,1.1-0.1
	c1.4-1.5,2.9-2.9,4.3-4.4c0.9-0.9,1.8-1.8,2.7-2.8C66.4,48.1,66.6,48,66.7,47.7L66.7,47.7z M81.2,41.9c0.1-3.5-2.8-7-7-7.1
	c-3.9,0-7,3.1-7.1,7c0,4,3.3,7.1,7,7.1C78,48.9,81.2,45.7,81.2,41.9z M59.3,61.8c-0.1-2.5-2-5-5-5c-2.9,0-5,2.3-5,5c0,3,2.5,4.9,5,5
	C56.9,66.8,59.3,64.4,59.3,61.8z M57.3,19.3c0-1.2-1.1-2.2-2.3-2.2s-2.3,1.1-2.3,2.3c0,1.2,1.2,2.3,2.3,2.2
	C56.2,21.5,57.3,20.4,57.3,19.3z M31.8,60.7c-1.1-0.1-2,1-2,2s1,2,2,2c0.9,0,2-1,2-2S32.8,60.7,31.8,60.7z"/>
<path id="path12" inkscape:connector-curvature="0" class="st0" d="M192.5,66.5c0,0.4,0,0.7,0,1.1c0,5.4,0,10.8,0,16.3
	c0,0.2,0,0.3,0,0.5c0,0.7,0,0.7-0.8,0.7c-1,0-2.1,0-3.1,0c-0.4,0-0.6-0.1-0.6-0.5c0-0.2,0-0.4,0-0.6c0-8.1,0-16.3,0-24.4
	c0-1.4-0.1-1.1,1.2-1.2c0.7,0,1.4,0,2.1,0c0.6-0.1,1,0.2,1.3,0.7c2.6,3.8,5.3,7.6,8,11.4c1.5,2.1,2.9,4.2,4.4,6.4
	c0.3-0.3,0.2-0.7,0.2-1c0-5.4,0-10.7,0-16.1c0-0.2,0-0.4,0-0.6c0-0.8,0-0.8,0.8-0.8c0.9,0,1.9,0,2.8,0c0.8,0,0.8,0,0.8,0.9
	c0,0.1,0,0.3,0,0.4c0,8.1,0,16.2,0,24.3c0,0.1,0,0.3,0,0.4c0,0.7,0,0.7-0.8,0.7s-1.7,0-2.5,0c-0.7,0-1.1-0.2-1.5-0.8
	c-2.5-3.6-5-7.2-7.4-10.8c-1.5-2.1-3-4.3-4.4-6.4c-0.2-0.2-0.3-0.5-0.5-0.7C192.6,66.4,192.6,66.4,192.5,66.5z"/>
<path id="path14" inkscape:connector-curvature="0" class="st0" d="M389.4,71.2c0,3-0.5,5.6-1.9,8c-2.8,4.6-6.9,6.6-12.3,6.3
	c-5.5-0.3-10.3-4.3-11.3-10.7c-0.6-3.5-0.3-6.9,1.4-10.1c4.2-8.4,15.7-9.1,21.1-2.5c1.7,2.2,2.7,4.6,3,7.4
	C389.3,70.2,389.3,70.8,389.4,71.2L389.4,71.2z M384.7,71.8c0-2.7-0.5-5-1.9-7.1c-2.1-3-5.4-3.8-8.5-2.9c-2.1,0.6-3.6,2-4.7,3.9
	c-1.1,2-1.5,4.1-1.5,6.3c0,2.1,0.4,4.1,1.5,5.9s2.6,3.2,4.7,3.7c3.4,0.9,6.8-0.5,8.7-3.6C384.3,76,384.7,73.8,384.7,71.8L384.7,71.8
	z"/>
<path id="path16" inkscape:connector-curvature="0" class="st0" d="M360.6,71.9c0,3.3-0.9,6.5-3.3,9.3c-2.8,3.3-6.5,4.6-10.7,4.3
	c-3.2-0.2-5.9-1.4-8.1-3.7c-1.8-1.9-2.9-4.3-3.4-6.9c-0.6-3.5-0.3-6.9,1.3-10.1c4.2-8.5,16.2-9.6,21.6-2
	C359.9,65.4,360.6,68.4,360.6,71.9z M339.4,71.6c0,2.4,0.5,4.7,1.8,6.7c1.8,2.8,5,4.1,8.3,3.3c2.2-0.5,3.9-1.8,4.9-3.7
	c2.2-4.1,2.2-8.3,0.1-12.5c-0.9-1.6-2.2-2.8-4-3.5c-3.5-1.3-7.3,0.1-9.3,3.4C339.9,67.2,339.4,69.4,339.4,71.6z"/>
<path id="path18" inkscape:connector-curvature="0" class="st0" d="M226.3,71.6c0-4.1,0-8.1,0-12.2c0-0.2,0-0.4,0-0.7
	s0.1-0.5,0.4-0.5c0.1,0,0.1,0,0.2,0c3.4,0,6.7,0,10.1,0c1,0,2,0.2,2.9,0.4c3.6,0.9,6,3.2,7.2,6.6c1.6,4.3,1.6,8.8-0.3,13
	c-1.6,3.9-4.7,5.9-8.8,6.5c-1.1,0.2-2.2,0.1-3.4,0.1c-2.5,0-5,0-7.5,0c-1,0-0.9,0-0.9-1C226.3,79.9,226.3,75.8,226.3,71.6z
	 M230.7,71.6c0,2.9,0,5.9,0,8.8v0.1c0,0.7,0,0.8,0.7,0.8c1.6,0,3.1,0,4.7,0c3.6-0.1,6.1-2.1,7.1-5.5c0.4-1.6,0.6-3.2,0.5-4.8
	c0-1.4-0.2-2.8-0.7-4.2c-1.1-3.1-3.2-4.7-6.5-4.8c-1.6,0-3.2,0-4.8,0c-1.1,0-1-0.1-1,1C230.7,65.9,230.7,68.7,230.7,71.6z"/>
<path id="path20" inkscape:connector-curvature="0" class="st1" d="M468.4,45.9c0,12.6,0,25.3,0,37.9c0,0.2,0,0.3,0,0.5
	c0,0.7,0,0.7-0.8,0.7c-0.9,0-1.7,0-2.6,0c-0.4,0-0.6-0.1-0.6-0.6c0-0.2,0-0.4,0-0.6c0-25.3,0-50.7,0-76c0-1.3-0.2-1.2,1.2-1.2
	c0.7,0,1.5,0,2.2,0c0.4,0,0.5,0.2,0.5,0.5s0,0.5,0,0.8C468.4,20.7,468.4,33.3,468.4,45.9L468.4,45.9z"/>
<path id="path22" inkscape:connector-curvature="0" class="st0" d="M289.5,73.5c2.2,3.8,4.3,7.6,6.6,11.5c-1.2,0-2.2,0-3.3,0
	c-0.2,0-0.5,0-0.7,0c-0.6,0.1-0.9-0.2-1.2-0.7c-1.6-3-3.3-6.1-5-9.1c-0.3-0.6-0.6-0.8-1.3-0.7c-1.2,0.1-2.5,0.1-3.7,0.1
	c-0.8,0-0.8,0-0.8,0.8c0,2.9,0,5.8,0,8.8c0,0.9,0,0.9-0.8,0.9c-1,0-2,0-3,0c-0.4,0-0.7-0.1-0.6-0.6c0-0.2,0-0.4,0-0.6
	c0-8.1,0-16.3,0-24.4c0-0.1,0-0.3,0-0.4c0-0.7,0-0.7,0.8-0.7c2.6,0,5.3,0,7.9,0c2.3,0.1,4.5,0.5,6.5,1.8c1.9,1.2,2.9,2.9,3.1,5.1
	c0.4,3.5-0.9,6.2-4,7.9c-0.1,0.1-0.2,0.1-0.3,0.2C289.6,73.3,289.6,73.4,289.5,73.5z M280.1,66.5c0,1.3,0,2.6,0,3.9
	c0,0.4,0.1,0.6,0.6,0.6c1.2,0,2.5,0,3.7,0c1.1-0.1,2.1-0.3,3.1-0.9c0.9-0.5,1.5-1.2,1.7-2.2c0.7-3.3-0.8-5.1-3.4-5.6
	c-0.2,0-0.4-0.1-0.7-0.1c-1.5-0.2-2.9-0.1-4.4-0.1c-0.5,0-0.7,0.2-0.6,0.7C280.2,63.9,280.1,65.2,280.1,66.5L280.1,66.5z"/>
<path id="path24" inkscape:connector-curvature="0" class="st0" d="M329.6,71.6c0,4.1,0,8.1,0,12.2c0,0.2,0,0.4,0,0.7
	c0,0.3-0.1,0.5-0.4,0.5c-1.2,0-2.4,0-3.6,0c-0.3,0-0.4-0.1-0.4-0.4c0-0.2,0-0.4,0-0.7c0-3.2,0-6.4,0-9.6c0-0.9,0-0.9-0.9-0.9
	c-3.1,0-6.3,0-9.4,0c-0.9,0-0.9,0-0.9,0.9c0,3.2,0,6.5,0,9.7c0,1.1,0.1,1-1.1,1c-0.9,0-1.9,0-2.8,0c-0.4,0-0.6-0.1-0.6-0.5
	c0-0.2,0-0.3,0-0.5c0-8.2,0-16.4,0-24.6c0-1.2-0.1-1,1.1-1.1c0.8,0,1.5-0.1,2.3-0.1c1.1-0.1,1-0.1,1,0.9c0,3.1,0,6.2,0,9.3
	c0,1.4,0,1.4,1.5,1.4c3,0,6,0,8.9,0c0.7,0,0.7,0,0.7-0.7c0-3.2,0-6.5,0-9.7c0-0.2,0-0.4,0-0.7s0.1-0.4,0.4-0.4c1.2,0,2.4,0,3.7,0
	c0.2,0,0.3,0.1,0.3,0.4c0,0.3,0,0.5,0,0.8C329.6,63.5,329.6,67.6,329.6,71.6L329.6,71.6z"/>
<path id="path26" inkscape:connector-curvature="0" class="st1" d="M545,47.1c-2.8,0-5.5,0-8.3,0c-1,0-1.6-0.4-2.1-1.3
	c-1.9-3.7-3.9-7.3-5.9-11c-0.6-1.2-1.2-2.3-1.8-3.5c-0.4-0.8-0.4-1.4,0.1-2.2c1.3-2.1,2.5-4.3,3.8-6.5c1.1-1.8,2.1-3.7,3.2-5.5
	c0.1-0.2,0.3-0.5,0.5-0.7c0.4-0.7,0.9-0.9,1.7-0.9c1,0,2,0,3,0c4.4,0,8.8,0,13.2,0c1.1,0,1.8,0.4,2.3,1.3c1.7,2.9,3.4,5.7,5.1,8.6
	c1.1,1.8,2.2,3.6,3.3,5.4c0.4,0.7,0.5,1.2,0.1,1.9c-1.7,2.9-3.3,5.8-5,8.8c-0.9,1.5-1.8,3.1-2.6,4.6c-0.4,0.7-0.9,1-1.8,1
	C550.7,47.1,547.9,47.1,545,47.1C545,47.1,545,47.1,545,47.1z M545.1,44.6c2.4,0,4.9,0,7.3,0c0.6,0,1-0.2,1.3-0.8
	c0.7-1.4,1.5-2.7,2.3-4.1c1.4-2.4,2.8-4.8,4.2-7.2c0.3-0.5,0.2-0.8-0.1-1.2c-0.9-1.5-1.8-3-2.7-4.5c-1.6-2.7-3.2-5.4-4.8-8.1
	c-0.2-0.4-0.4-0.5-0.8-0.5c-0.7,0-1.5,0-2.2,0c-4.1,0-8.3,0-12.4,0c-0.4,0-0.8,0-1,0.5c-2.1,3.7-4.2,7.4-6.4,11.1
	c-0.3,0.6-0.2,1,0,1.5c1,1.8,1.9,3.6,2.9,5.3c1.3,2.4,2.6,4.9,3.9,7.4c0.3,0.6,0.7,0.7,1.3,0.7C540.2,44.6,542.7,44.6,545.1,44.6z"
	/>
<path id="path28" inkscape:connector-curvature="0" class="st0" d="M159.6,85c0-0.5,0.2-0.8,0.3-1.1c3.2-8.3,6.3-16.5,9.5-24.8
	c0.4-1,0.3-0.8,1.2-0.9c0.8,0,1.5,0,2.3,0c0.6,0,0.8,0.2,1,0.7c1.2,3.1,2.4,6.1,3.5,9.1c2,5.2,4,10.4,6.1,15.6c0.4,1,0.4,1-0.7,1.2
	c-0.9,0.1-1.7,0.3-2.6,0.4c-0.7,0.1-0.7,0.1-1-0.6c-0.7-1.9-1.4-3.7-2.1-5.6c-0.2-0.5-0.4-0.7-1-0.7c-3,0-6,0-9,0
	c-0.6,0-0.8,0.2-1,0.7c-0.7,1.8-1.4,3.6-2,5.4c-0.2,0.5-0.4,0.7-1,0.7C162,85,160.8,85,159.6,85z M171.5,64.3
	c-1.3,3.6-2.6,6.9-3.9,10.4c2.7,0,5.2,0,7.9,0C174.2,71.2,172.9,67.8,171.5,64.3z"/>
<path id="path30" inkscape:connector-curvature="0" class="st0" d="M269.5,61.6c-0.4,0.2-0.7,0.1-1.1,0.1c-3.2,0-6.5,0-9.7,0
	c-0.9,0-0.9,0-0.9,0.9c0,2.1,0,4.1,0,6.2c0,0.9,0,0.9,0.9,0.9c2.4,0,4.7,0,7.1,0c0.9,0,0.9,0,1,0.8c0.1,0.6,0.3,1.3,0.4,1.9
	c0.1,0.7,0.1,0.7-0.6,0.7c-1.7,0-3.4,0-5.1,0c-1,0-2.1,0-3.1,0c-0.5,0-0.7,0.2-0.7,0.7c0,2.3,0,4.6,0,6.9c0,0.8,0,0.8,0.8,0.8
	c3.6,0,7.2,0,10.8,0c1.1,0,1.1,0,1.4,1.1c0.1,0.6,0.2,1.3,0.4,1.9c0.1,0.3,0,0.4-0.3,0.4c-0.2,0-0.4,0-0.6,0c-5.3,0-10.5,0-15.8,0
	c-0.1,0-0.3,0-0.4,0c-0.5,0.1-0.6-0.2-0.6-0.7c0-2.4,0-4.9,0-7.3c0-5.9,0-11.8,0-17.7c0-1.1-0.1-1,1-1c4.5,0,9,0,13.5,0
	c1,0,1,0,1.2,1C269.2,60.1,269.4,60.9,269.5,61.6L269.5,61.6z"/>
<path id="path32" inkscape:connector-curvature="0" class="st1" d="M455.4,56.7c0,9,0,18.1,0,27.1c0,0.2,0,0.3,0,0.5
	c0,0.7,0,0.7-0.8,0.7c-0.9,0-1.8,0-2.7,0c-0.4,0-0.5-0.1-0.5-0.5c0-0.2,0-0.4,0-0.7c0-18.1,0-36.2,0-54.3c0-1.3-0.2-1.2,1.2-1.2
	c0.7,0,1.5,0,2.2,0c0.4,0,0.6,0.1,0.6,0.6c0,0.2,0,0.4,0,0.6C455.4,38.6,455.4,47.7,455.4,56.7L455.4,56.7z"/>
<path id="path34" inkscape:connector-curvature="0" class="st0" d="M146.3,78.9c0.8-2.2,1.6-4.3,2.4-6.4c1.7-4.5,3.3-8.9,5-13.4
	c0.3-0.8,0.3-0.8,1.1-0.8c1.1,0,2.3,0,3.4,0c0,0.4-0.2,0.8-0.3,1.1c-3.1,8.2-6.3,16.5-9.4,24.7c-0.1,0.2-0.1,0.4-0.2,0.5
	c-0.1,0.3-0.2,0.4-0.6,0.4c-1,0-2.1,0-3.1,0c-0.4,0-0.5-0.3-0.6-0.6c-0.9-2.3-1.8-4.7-2.7-7c-2.3-6-4.7-11.9-7-17.9
	c-0.4-0.9-0.4-0.9,0.6-1.1c0.9-0.1,1.8-0.2,2.8-0.4c0.5-0.1,0.7,0.1,0.9,0.6c1,2.8,2.1,5.6,3.2,8.5c1.4,3.7,2.8,7.4,4.2,11.1
	C146,78.3,146.1,78.5,146.3,78.9L146.3,78.9z"/>
<path id="path36" inkscape:connector-curvature="0" class="st1" d="M504.2,53.9c0.3-2,0.4-4.1,0.6-6.2c0.1-1.3,0.2-2.6,0.3-3.8
	c0.2-1.8,0.4-3.7,0.5-5.5c0.1-1,0.6-1.5,1.5-1.7c3.4-1,6.8-1.9,10.3-2.9c1.8-0.5,3.5-1,5.3-1.5c0.9-0.3,1.4,0,1.8,0.8
	c2.6,4.7,5.1,9.4,7.7,14.2c0.7,1.2,0.6,1.6-0.3,2.7c-2.6,2.9-5.1,5.9-7.7,8.8c-0.9,1-1.7,2-2.6,3c-0.5,0.6-1,0.7-1.8,0.4
	c-2.5-1.1-5.1-2.2-7.6-3.3c-2.1-0.9-4.1-1.8-6.2-2.7c-0.3-0.1-0.6-0.3-0.9-0.4C504.4,55.4,504.1,54.8,504.2,53.9L504.2,53.9z
	 M522.3,34.9c-0.1,0-0.3,0.1-0.5,0.1c-2.1,0.6-4.1,1.1-6.2,1.7c-2.3,0.6-4.6,1.3-6.8,2c-0.4,0.1-0.6,0.2-0.7,0.7
	c-0.1,1.1-0.2,2.3-0.3,3.4c-0.2,1.8-0.3,3.6-0.5,5.3c-0.1,1.6-0.3,3.2-0.4,4.8c0,0.4,0.1,0.6,0.5,0.8c1,0.4,1.9,0.8,2.9,1.3
	c3,1.3,6,2.6,9,3.9c0.9,0.4,0.9,0.4,1.5-0.3c1.8-2,3.5-4,5.3-6c1.1-1.3,2.2-2.6,3.4-3.9c0.4-0.4,0.4-0.8,0.1-1.2
	c-0.1-0.1-0.1-0.2-0.2-0.3c-1.8-3.3-3.6-6.7-5.5-10c-0.3-0.6-0.7-1.2-1-1.9C522.8,35.1,522.6,34.9,522.3,34.9z"/>
<path id="path38" inkscape:connector-curvature="0" class="st0" d="M407.7,73.2c-0.3,0.2-0.7,0.1-1,0.1c-2.3,0-4.6,0-6.8,0
	c-1.4,0-1.2-0.2-1.2,1.2c0,3.2,0,6.4,0,9.6c0,0.9,0,0.9-0.8,0.9c-1,0-2,0-3,0c-0.4,0-0.7-0.1-0.6-0.6c0-0.2,0-0.3,0-0.5
	c0-8.2,0-16.4,0-24.5c0-0.1,0-0.3,0-0.4c0-0.7,0-0.7,0.8-0.7c4.4,0,8.8,0,13.3,0c0.6,0,0.8,0.2,0.9,0.7c0.1,0.9,0.3,1.8,0.5,2.6
	c-0.4,0.2-0.7,0.1-1.1,0.1c-3,0-6,0-9,0c-0.8,0-0.8,0-0.8,0.8c0,2.2,0,4.4,0,6.6c0,0.7,0,0.7,0.8,0.7c2.2,0,4.5,0,6.7,0
	c1,0,1.1-0.2,1.2,1C407.5,71.7,407.7,72.4,407.7,73.2z"/>
<path id="path40" inkscape:connector-curvature="0" class="st0" d="M432.8,61.8c-0.9,0-1.7,0-2.6,0c-1.9,0-3.8,0-5.7,0
	c-0.8,0-0.8,0-0.8,0.8c0,7,0,14.1,0,21.1c0,1.4,0.2,1.2-1.2,1.2c-0.9,0-1.8,0-2.7,0c-0.4,0-0.6-0.1-0.6-0.6c0-0.2,0-0.4,0-0.7
	c0-7,0-14,0-21c0-1.1,0.1-1-1-1c-2.2,0-4.4,0-6.6,0c-0.7,0-0.8,0-0.8-0.7s0-1.5,0-2.2c0-0.4,0.2-0.6,0.6-0.6c0.2,0,0.4,0,0.6,0
	c6.4,0,12.8,0,19.2,0c0.2,0,0.4,0,0.6,0c0.3,0,0.5,0.1,0.5,0.4C432.5,59.7,432.7,60.6,432.8,61.8z"/>
<path id="path42" inkscape:connector-curvature="0" class="st0" d="M330.4,121.9c0,0.4,0,0.7,0,1c0,3.3,0,6.7,0,10
	c0,0.7,0,0.8-0.7,0.8c-0.6,0-1.2,0-1.8,0c-0.3,0-0.5-0.1-0.5-0.4c0-0.2,0-0.4,0-0.6c0-5.4,0-10.8,0-16.3c0-0.1,0-0.3,0-0.4
	c0-0.4,0.1-0.7,0.6-0.6c0.1,0,0.3,0,0.4,0c0.6-0.1,1,0.2,1.4,0.7c1.7,2.4,3.4,4.8,5.2,7.2c0.2,0.3,0.4,0.5,0.6,0.7
	c0.3-0.2,0.5-0.5,0.6-0.8c1.6-2.4,3.2-4.8,4.8-7.2c0.2-0.3,0.3-0.6,0.6-0.7c0.5,0,1,0,1.4,0c0.1,0,0.2,0.2,0.2,0.3
	c0,0.2,0,0.4,0,0.7c0,5.5,0,10.9,0,16.4c0,0.2,0,0.3,0,0.5c0,0.4-0.2,0.5-0.5,0.5c-0.6,0-1.3,0-1.9,0c-0.5,0-0.6-0.2-0.6-0.7
	c0-3.2,0-6.3,0-9.5c0-0.3,0-0.7,0-1.1c-0.3,0.1-0.4,0.4-0.6,0.5c-1,1.5-2,3-3.1,4.4c-0.2,0.3-0.4,0.5-0.7,0.5
	c-0.5,0.1-0.9,0-1.2-0.5c-1.1-1.6-2.3-3.2-3.5-4.8C330.9,122.5,330.8,122.2,330.4,121.9L330.4,121.9z"/>
<path id="path44" inkscape:connector-curvature="0" class="st1" d="M575.4,66.2c0,5.8,0,11.7,0,17.5c0,0.2,0,0.4,0,0.7
	c0,0.7,0,0.7-0.7,0.7c-0.9,0-1.8,0-2.7,0c-0.4,0-0.6-0.1-0.5-0.6c0-0.2,0-0.3,0-0.5c0-11.9,0.1-23.7,0.1-35.6c0-1.5,0-1.2,1.2-1.2
	c0.7,0,1.5,0,2.2,0c0.4,0,0.6,0.1,0.6,0.6c0,0.2,0,0.3,0,0.5c0,6,0,11.9,0,17.9C575.5,66.2,575.4,66.2,575.4,66.2L575.4,66.2z"/>
<path id="path46" inkscape:connector-curvature="0" class="st0" d="M177.9,122.2c0.7-0.5,1.4-1,2.2-1.3c1.1-0.5,2.2-0.7,3.5-0.5
	c1.4,0.2,2.3,1,2.8,2.3c0.3,0.8,0.4,1.6,0.4,2.5c0,2.6,0,5.3,0,7.9c0,0.8,0,0.8-0.8,0.8c-0.5,0-1.1,0-1.6,0s-0.6-0.2-0.6-0.6
	c0-2.3,0-4.7,0-7c0-0.6,0-1.2-0.2-1.8c-0.2-1-0.8-1.5-1.8-1.4c-1.3,0.1-2.3,0.8-3.2,1.6c-0.2,0.2-0.1,0.5-0.1,0.7c0,2.6,0,5.1,0,7.7
	c0,0.9,0.1,0.8-0.8,0.8c-0.5,0-1.1,0-1.6,0s-0.6-0.1-0.6-0.6c0-2.2,0-4.4,0-6.5c0-0.6,0-1.2,0-1.8c-0.1-1.6-1.1-2.3-2.7-1.8
	c-0.9,0.3-1.7,0.8-2.4,1.4c-0.3,0.3-0.3,0.6-0.3,0.9c0,2.4,0,4.9,0,7.3c0,0.2,0,0.4,0,0.7s-0.1,0.4-0.4,0.4c-0.7,0-1.5,0-2.2,0
	c-0.3,0-0.4-0.2-0.4-0.5c0-0.5,0-1,0-1.5c0-3.4,0-6.7,0-10.1c0-0.9,0-0.9,0.9-0.9c0.1,0,0.1,0,0.2,0c1.1,0,0.9-0.1,1.3,0.9
	c0.1,0.1,0.1,0.3,0.2,0.4c0.3,0.1,0.5-0.1,0.7-0.3c0.8-0.5,1.6-0.9,2.5-1.2C174.8,119.9,176.3,120.4,177.9,122.2L177.9,122.2z"/>
<path id="path48" inkscape:connector-curvature="0" class="st0" d="M454.2,122.2c1.3-0.9,2.6-1.6,4.1-1.8c2.9-0.4,4.4,1.1,4.7,3.5
	c0.1,0.9,0.1,1.9,0.1,2.8c0,2.1,0,4.2,0,6.3c0,0.7,0,0.7-0.7,0.7c-0.6,0-1.2,0-1.7,0s-0.6-0.2-0.6-0.7c0-2.4,0-4.8,0-7.2
	c0-0.5,0-1.1-0.2-1.6c-0.2-1-0.8-1.4-1.9-1.4c-1,0.1-1.7,0.6-2.5,1.1c-0.6,0.4-0.8,0.8-0.8,1.5c0,2.5,0,5.1,0,7.6
	c0,0.7,0,0.7-0.7,0.7c-0.6,0-1.2,0-1.7,0s-0.7-0.2-0.6-0.7c0-2.3,0-4.6,0-6.9c0-0.5,0-1.1-0.1-1.6c-0.2-1.3-0.9-1.8-2.2-1.6
	c-1.1,0.2-2,0.9-2.9,1.6c-0.3,0.2-0.2,0.6-0.2,0.9c0,2.4,0,4.9,0,7.3c0,1.2,0.1,1-1,1c-0.4,0-0.9,0-1.3,0c-0.5,0.1-0.6-0.2-0.6-0.7
	c0-3.9,0-7.8,0-11.7c0-0.5,0.2-0.6,0.7-0.6c1.3,0,1.3,0,1.8,1.2c0,0.1,0.1,0.2,0.1,0.2c0.3,0,0.5-0.3,0.7-0.4
	c0.9-0.6,1.8-1.1,2.9-1.3C451.4,120.1,453,120.3,454.2,122.2L454.2,122.2z"/>
<path id="path50" inkscape:connector-curvature="0" class="st0" d="M520.5,116.3c-0.2,0.6-0.5,1.1-0.7,1.6c-0.1,0.4-0.4,0.5-0.7,0.4
	c-0.5-0.2-1-0.3-1.5-0.4c-4.9-1-7.9,1.9-8.2,6c-0.1,0.9,0,1.9,0.2,2.8c0.7,3.3,3,5.1,6.3,4.9c2.2-0.1,2.2-0.1,2.2-2.3
	c0-0.8,0-1.7,0-2.5c0-0.4-0.2-0.5-0.5-0.5c-0.9,0-1.9,0-2.8,0c-0.5,0-0.6-0.2-0.5-0.6c0.1-1.7,0.1-1.7,1.8-1.7c1.3,0,2.7,0,4,0
	c0.8,0,0.8,0,0.8,0.7c0,2.5,0,5,0,7.5c0,0.5-0.1,0.8-0.6,1c-2.5,1-5,1.3-7.6,0.6c-3.4-0.9-5.9-3.8-6.3-7.5c-0.2-2-0.1-3.9,0.7-5.7
	c1.7-3.9,5.5-5.7,9.3-5.4c1,0.1,2,0.3,2.9,0.6C519.7,115.8,520.1,116,520.5,116.3L520.5,116.3z"/>
<path id="path52" inkscape:connector-curvature="0" class="st1" d="M489.3,69c0,4.9,0,9.9,0,14.8c0,0.2,0,0.3,0,0.5
	c0,0.7,0,0.7-0.8,0.7c-0.9,0-1.8,0-2.7,0c-0.4,0-0.5-0.1-0.5-0.5c0-0.2,0-0.4,0-0.7c0-9.9,0-19.8,0-29.7c0-1.3-0.2-1.2,1.2-1.2
	c0.7,0,1.5,0,2.2,0c0.4,0,0.6,0.1,0.6,0.6c0,0.2,0,0.4,0,0.6C489.3,59.1,489.3,64.1,489.3,69L489.3,69z"/>
<path id="path54" inkscape:connector-curvature="0" class="st0" d="M570.8,133.6c-0.2,0.3-0.1,0.6-0.1,0.9c0,1.4,0,2.8,0,4.2
	c0,0.4-0.1,0.7-0.6,0.7c-0.7,0-1.3,0.1-2,0.2c-0.3,0-0.4,0-0.4-0.3c0-0.2,0-0.4,0-0.6c0-5.7,0-11.4,0-17.1c0-0.2,0-0.4,0-0.6
	c0-0.1,0.1-0.2,0.2-0.3c0.5-0.2,1.4,0,1.7,0.5c0.1,0.1,0.2,0.2,0.3,0.3c0.2-0.1,0.3-0.2,0.5-0.3c3.9-2.2,8.5,0,9.2,4.4
	c0.3,1.6,0.2,3.1-0.4,4.5c-1.2,3.1-4.7,4.7-7.8,3.5C571.2,133.7,571,133.5,570.8,133.6L570.8,133.6z M576.6,127.1
	c0-0.3,0-0.8-0.1-1.2c-0.5-2.6-3-3.8-5.3-2.4c-0.3,0.2-0.5,0.4-0.5,0.8c0,2,0,4,0,6c0,0.3,0.1,0.5,0.3,0.7c1.4,1.1,3.9,0.7,4.9-0.8
	C576.4,129.2,576.6,128.3,576.6,127.1L576.6,127.1z"/>
<path id="path56" inkscape:connector-curvature="0" class="st0" d="M193.7,133.6c0,1.6,0,3.2,0,4.9c0,0.9,0,0.9-0.9,1
	c-0.6,0.1-1.1,0.1-1.7,0.2c-0.3,0-0.4-0.1-0.4-0.4c0-0.2,0-0.4,0-0.6c0-5.7,0-11.4,0-17c0-0.2,0-0.4,0-0.6s0.1-0.3,0.3-0.3
	c0.6,0,1.2-0.3,1.7,0.4c0.3,0.4,0.5,0.3,0.9,0.1c1.6-1,3.3-1.1,5.1-0.5c2.6,0.8,3.8,2.8,4.2,5.4c0.2,1.3,0.1,2.7-0.4,4
	c-1.2,3.2-4.7,4.8-7.9,3.7C194.2,133.7,194,133.5,193.7,133.6L193.7,133.6z M193.7,127.3c0,1,0,1.9,0,2.9c0,0.3,0,0.6,0.4,0.8
	c1.9,1.3,4.4,0.5,5.3-1.7c0.5-1.3,0.5-2.6,0.1-3.9c-0.7-2.2-3-3.1-5-2c-0.4,0.2-0.7,0.5-0.6,1C193.8,125.4,193.7,126.3,193.7,127.3z
	"/>
<path id="path58" inkscape:connector-curvature="0" class="st0" d="M390.4,133c-0.3,0.2-0.4,0.6-0.7,0.7c-0.5,0.1-1,0.2-1.4,0
	c-0.3-0.2-0.1-0.7-0.1-1c0-5.5,0-11,0-16.5c0-0.2,0-0.4,0-0.6c0-0.3,0.1-0.5,0.4-0.5c0.7-0.1,1.3-0.1,2-0.2c0.5-0.1,0.6,0.1,0.6,0.6
	c0,1.7,0,3.3,0,5c0,0.2,0,0.3,0,0.5c0.3,0.2,0.4,0,0.6-0.1c3.4-1.3,7.1,0.5,8.1,4.1c0.5,1.7,0.5,3.4-0.1,5c-1.2,3.6-5.2,5.3-8.6,3.6
	C391,133.3,390.7,133.2,390.4,133z M391.2,127.2c0,1,0,2,0,3c0,0.3,0,0.5,0.3,0.7c1.7,1.2,4.2,0.6,5.1-1.2c0.7-1.4,0.7-2.8,0.3-4.2
	c-0.7-2.3-3.1-3.2-5.2-2c-0.4,0.2-0.6,0.5-0.5,0.9C391.2,125.3,391.2,126.2,391.2,127.2L391.2,127.2z"/>
<path id="path60" inkscape:connector-curvature="0" class="st0" d="M163.4,127c0,1.3-0.2,2.4-0.7,3.5c-1.1,2.2-2.9,3.3-5.2,3.6
	c-0.7,0.1-1.5,0.1-2.2,0c-3.5-0.6-5.5-3.3-5.4-7.1c0-0.6,0.1-1.2,0.2-1.8c0.7-2.6,2.7-4.4,5.3-4.7c0.9-0.1,1.8-0.1,2.7,0.1
	c3,0.6,4.9,2.7,5.1,5.8C163.4,126.6,163.4,126.9,163.4,127L163.4,127z M160.3,127.2c0-0.7-0.1-1.4-0.4-2.1c-0.6-1.3-1.5-2.1-2.9-2.2
	s-2.6,0.5-3.3,1.7c-0.9,1.7-1,3.4-0.1,5c1.2,2.2,4.3,2.4,5.8,0.4C160.1,129.2,160.3,128.3,160.3,127.2L160.3,127.2z"/>
<path id="path62" inkscape:connector-curvature="0" class="st0" d="M350.6,128.1c0,1.7,1,2.9,2.7,3.3c1.3,0.3,2.5,0.2,3.7-0.3
	c0.4-0.2,0.7-0.3,1.1-0.5s0.6-0.1,0.7,0.3c0.1,0.4,0.3,0.8,0.5,1.1c0.3,0.5,0.1,0.7-0.3,0.9c-2.7,1.5-5.4,1.5-8.2,0.3
	c-1.4-0.6-2.4-1.8-2.9-3.2c-0.7-2-0.7-4,0.1-6c0.9-2.3,2.7-3.4,5.1-3.6c0.5,0,1,0,1.4,0c1.7,0.1,3.1,1,4,2.5s1.1,3.1,1.1,4.7
	c0,0.5-0.3,0.4-0.7,0.4c-2.4,0-4.8,0-7.2,0C351.3,128.1,350.9,128,350.6,128.1L350.6,128.1z M350.6,126c2,0,3.9,0,5.9,0
	c-0.3-2-1.3-3-3-3S350.7,124.2,350.6,126z"/>
<path id="path64" inkscape:connector-curvature="0" class="st0" d="M264.5,127.2c0-0.6,0.1-1.3,0.2-2c0.7-2.6,2.6-4.4,5.3-4.7
	c1-0.1,2-0.1,3.1,0.1c2.3,0.6,3.8,2,4.5,4.2c0.5,1.5,0.5,3,0.1,4.6c-0.7,2.7-2.8,4.5-5.6,4.8c-0.8,0.1-1.5,0.1-2.3-0.1
	C266.4,133.4,264.5,130.9,264.5,127.2L264.5,127.2z M274.8,127.3c0-0.4,0-0.7-0.1-1.1c-0.3-1.8-1.6-3.1-3.2-3.3
	c-1.7-0.1-3.2,0.9-3.7,2.7c-0.3,1.1-0.3,2.3,0,3.4c0.5,1.5,1.6,2.4,3.1,2.4c1.5,0.1,2.6-0.6,3.3-2
	C274.7,128.8,274.8,128.1,274.8,127.3L274.8,127.3z"/>
<path id="path66" inkscape:connector-curvature="0" class="st0" d="M433.1,120.4c3.9-0.1,6.9,2.6,6.7,7.3c0,0.5-0.1,1.1-0.2,1.6
	c-0.7,2.7-2.8,4.5-5.6,4.7c-0.8,0.1-1.7,0.1-2.5-0.1c-2.9-0.6-4.8-2.7-5-5.7c-0.1-0.9-0.1-1.9,0.1-2.8
	C427.2,122.3,429.6,120.4,433.1,120.4z M436.7,127.3c0-0.4,0-0.7-0.1-1.1c-0.3-1.8-1.6-3.1-3.2-3.3c-1.7-0.1-3.1,0.9-3.7,2.6
	c-0.4,1.3-0.4,2.6,0.2,3.8s1.5,2,2.9,2c1.4,0.1,2.4-0.4,3.2-1.6C436.5,129.1,436.7,128.2,436.7,127.3z"/>
<path id="path68" inkscape:connector-curvature="0" class="st0" d="M402.7,127.2c0-0.6,0-1.3,0.2-1.9c0.6-2.6,2.3-4.2,4.9-4.7
	c1.3-0.3,2.7-0.3,4,0.1c2,0.6,3.4,2,4,4c0.5,1.5,0.5,3,0.1,4.5c-0.7,2.7-2.8,4.5-5.6,4.8c-0.8,0.1-1.5,0.1-2.3-0.1
	c-3.1-0.6-5.1-2.9-5.3-6C402.7,127.7,402.7,127.5,402.7,127.2L402.7,127.2z M405.8,127.3c0,0.3,0,0.6,0.1,1c0.3,1.9,1.6,3.2,3.3,3.2
	c1.7,0.1,3.2-1,3.7-2.9c0.3-1.1,0.2-2.2-0.1-3.2c-0.5-1.4-1.5-2.3-3-2.4s-2.6,0.6-3.4,1.9C405.9,125.6,405.8,126.4,405.8,127.3
	L405.8,127.3z"/>
<path id="path70" inkscape:connector-curvature="0" class="st0" d="M547.8,127.3c0.1,0.8-0.1,1.5-0.3,2.3c-0.7,2.6-2.9,4.3-5.6,4.5
	c-0.7,0.1-1.5,0.1-2.2-0.1c-4.1-0.7-5.7-4.2-5.3-7.7c0.3-2.7,1.6-4.7,4.3-5.6c1.6-0.5,3.3-0.5,4.9,0c2.6,0.9,3.9,2.9,4.2,5.5
	C547.9,126.6,547.8,126.9,547.8,127.3L547.8,127.3z M544.8,127.2c0-0.5-0.1-1.1-0.3-1.7c-0.5-1.5-1.6-2.4-3.1-2.5s-2.8,0.6-3.5,2.1
	c-0.6,1.3-0.7,2.7-0.2,4.1c0.5,1.4,1.5,2.3,3.1,2.3c1.5,0.1,2.6-0.6,3.3-1.9C544.6,128.9,544.8,128.1,544.8,127.2L544.8,127.2z"/>
<path id="path72" inkscape:connector-curvature="0" class="st1" d="M559.2,71.9c0-4,0-8,0-12c0-0.2,0-0.4,0-0.6
	c0-0.3,0.1-0.5,0.4-0.5c1,0,2,0,3,0c0.3,0,0.5,0.1,0.5,0.4c0,0.3,0,0.5,0,0.8c0,8,0,15.9,0,23.9c0,0.1,0,0.1,0,0.2
	c0,1,0.1,0.9-0.9,0.9c-0.7,0-1.3,0-2,0c-1,0-1,0.1-1-0.9c0-1.5,0-3.1,0-4.6C559.2,77,559.2,74.5,559.2,71.9z"/>
<path id="path74" inkscape:connector-curvature="0" class="st0" d="M142.5,134.1c-4.2,0-7.4-2.7-8.2-7c-0.4-2.4-0.3-4.7,0.7-6.9
	c1.5-3.5,4.9-5.5,8.8-5c1.2,0.1,2.3,0.4,3.3,0.8c0.4,0.2,0.5,0.4,0.3,0.7c-0.3,0.5-0.3,1.2-0.7,1.5c-0.5,0.3-1-0.2-1.5-0.3
	c-0.6-0.2-1.3-0.2-1.9-0.3c-2.4-0.1-4,0.9-5,3c-1.3,2.7-1.3,5.4,0,8.1c1,2,2.6,3,4.8,2.8c1.1-0.1,2.1-0.3,3.1-0.6
	c0.3-0.1,0.5-0.1,0.7,0.2c0.2,0.5,0.4,0.9,0.7,1.4c0.2,0.4,0.1,0.6-0.3,0.7C145.7,133.8,144.2,134.1,142.5,134.1L142.5,134.1z"/>
<path id="path76" inkscape:connector-curvature="0" class="st0" d="M305.4,132.6c-0.3,0-0.5,0.3-0.8,0.5c-1.5,1-3.1,1.2-4.8,0.7
	c-1.5-0.5-2.5-1.7-2.6-3.2c-0.3-2.8,1.3-4.6,4.2-4.8c0.9-0.1,1.9,0,2.8,0c0.5,0,0.6-0.2,0.5-0.6c-0.1-1.3-0.9-2-2.2-2.1
	c-1.1,0-2.2,0.2-3.2,0.6c-0.7,0.2-0.7,0.2-0.9-0.4c-0.2-0.5-0.3-0.9-0.5-1.4c-0.1-0.3,0-0.5,0.3-0.6c2.1-0.8,4.3-1.4,6.5-0.5
	c2,0.8,3.1,2.4,3.1,4.5c0,2.6,0,5.1,0,7.7c0,0.7,0,0.7-0.7,0.7C306,133.8,306,133.8,305.4,132.6L305.4,132.6z M303.1,127.9
	L303.1,127.9c-0.6,0-1.2,0-1.7,0.1c-0.9,0.1-1.5,0.9-1.6,1.8c-0.1,0.7,0.4,1.5,1.1,1.8c1.1,0.4,2.1,0,3.1-0.6c0.9-0.5,1-1.2,0.9-2.1
	c0-0.2,0-0.3,0-0.5c0-0.4-0.2-0.6-0.6-0.5C303.9,127.9,303.5,127.9,303.1,127.9L303.1,127.9z"/>
<path id="path78" inkscape:connector-curvature="0" class="st0" d="M240.3,125.8c0-1.9-0.8-2.7-2.6-2.7c-1,0-1.9,0.3-2.8,0.6
	c-0.7,0.2-0.7,0.2-0.9-0.4c-0.2-0.5-0.3-0.9-0.5-1.4c-0.1-0.3,0-0.5,0.3-0.6c2-0.8,4-1.3,6.2-0.6c2,0.7,3.5,2.4,3.5,4.8
	c-0.1,2.5,0,5.1,0,7.6c0,0.7,0,0.6-0.7,0.7c-0.9,0.1-1.7,0-1.7-1.1c-0.4,0.1-0.6,0.3-0.9,0.5c-1.4,1-3,1.2-4.7,0.7s-2.5-1.7-2.7-3.4
	s0.5-3.1,1.8-3.9c0.9-0.5,1.8-0.7,2.9-0.7C238.3,125.8,239.3,125.8,240.3,125.8L240.3,125.8z M240.4,129.2c0-0.4,0-0.7,0-1
	c0-0.2-0.1-0.3-0.3-0.3c-1.1,0-2.3-0.1-3.4,0.1c-0.9,0.2-1.5,1.2-1.4,2.2c0.1,0.9,0.9,1.6,1.9,1.6c0.7,0,1.3-0.2,1.9-0.5
	C239.9,130.7,240.7,130.2,240.4,129.2z"/>
<path id="path80" inkscape:connector-curvature="0" class="st0" d="M215.3,132.3c-0.8,0.5-1.5,1-2.3,1.3c-1.1,0.5-2.3,0.7-3.6,0.5
	c-1.5-0.2-2.5-1-3-2.4c-0.2-0.7-0.4-1.4-0.4-2.1c0-2.8,0-5.5,0-8.3c0-0.5,0.1-0.7,0.6-0.7c0.6,0,1.2,0,1.8,0c0.4,0,0.6,0.1,0.6,0.6
	c0,0.7,0,1.4,0,2.1c0,1.8,0,3.5,0,5.3c0,0.6,0,1.2,0.2,1.8c0.3,0.7,0.8,1.1,1.6,1.1c1.5,0,2.7-0.8,3.8-1.7c0.3-0.2,0.2-0.5,0.2-0.8
	c0-2.4,0-4.9,0-7.3c0-0.2,0-0.4,0-0.6c0-0.3,0.1-0.5,0.5-0.5c0.7,0,1.4,0,2.1,0c0.3,0,0.5,0.1,0.5,0.5c0,0.2,0,0.3,0,0.5
	c0,3.7,0,7.4,0,11.1c0,0.2,0,0.4,0,0.6c0,0.3-0.2,0.5-0.5,0.4c-0.1,0-0.1,0-0.2,0c-1.3,0-1.3,0-1.8-1.2
	C215.4,132.5,215.4,132.5,215.3,132.3L215.3,132.3z"/>
<path id="path82" inkscape:connector-curvature="0" class="st0" d="M381.3,132.6c-0.4,0.1-0.6,0.4-0.9,0.5c-1.5,1-3.1,1.2-4.8,0.7
	c-1.5-0.5-2.4-1.6-2.6-3.1c-0.3-2.8,1.2-4.6,4.2-4.8c0.8-0.1,1.6,0,2.4,0c0.3,0,0.6,0,0.9,0c0.1-1.9-0.7-2.7-2.5-2.7
	c-1,0-2,0.3-3,0.7c-0.4,0.2-0.6,0.1-0.8-0.3c-0.1-0.5-0.3-1-0.5-1.5c-0.1-0.3-0.1-0.6,0.3-0.7c2-0.8,4-1.3,6.1-0.6
	c1.1,0.3,2,1,2.7,1.9c0.5,0.7,0.8,1.5,0.8,2.3c0,2.7,0,5.4,0,8.2c0,0.5-0.1,0.7-0.6,0.7h-0.1C381.7,133.8,381.7,133.8,381.3,132.6
	L381.3,132.6z M380.7,129.2c0-0.4,0-0.7,0-0.9c0-0.3-0.1-0.5-0.5-0.5c-1,0-2,0-3,0.1s-1.8,1.1-1.7,2.1c0.1,1,0.9,1.7,2,1.7
	c0.7,0,1.4-0.3,2-0.6C380.4,130.6,381,130.1,380.7,129.2z"/>
<path id="path84" inkscape:connector-curvature="0" class="st0" d="M284,122.2c0.3-0.2,0.6-0.4,1-0.6c1.6-0.9,3.2-1.5,5-1.2
	c1.4,0.2,2.3,1,2.8,2.2c0.3,0.7,0.4,1.4,0.4,2.2c0,2.8,0,5.6,0,8.4c0,0.5-0.2,0.6-0.7,0.6s-1.1,0-1.6,0c-0.7,0-0.7,0-0.7-0.8
	c0-2.3,0-4.6,0-6.8c0-0.6,0-1.2-0.1-1.7c-0.2-1.1-0.9-1.6-2-1.6c-1.4,0.1-2.5,0.8-3.5,1.6c-0.3,0.2-0.2,0.6-0.2,0.9c0,2.5,0,5,0,7.5
	c0,0.9,0.1,0.8-0.8,0.8c-0.5,0-1,0-1.4,0c-0.7,0-0.7,0-0.7-0.8c0-3.4,0-6.8,0-10.2c0-0.5,0-1,0-1.5c0-0.3,0.1-0.6,0.5-0.5h0.1
	c1.3-0.1,1.3-0.1,1.8,1.2C283.9,122,283.9,122.1,284,122.2L284,122.2z"/>
<path id="path86" inkscape:connector-curvature="0" class="st0" d="M560.5,132.3c-0.6,0.4-1.2,0.8-1.8,1.1c-0.9,0.4-1.8,0.7-2.8,0.8
	c-2.6,0.2-4.2-1.2-4.6-3.7c0-0.4-0.1-0.8-0.1-1.2c0-2.6,0-5.2,0-7.8c0-0.7,0-0.8,0.7-0.8c0.5,0,1,0,1.5,0c0.7,0,0.7,0,0.7,0.8
	c0,2.3,0,4.7,0,7c0,0.6,0,1.2,0.2,1.7c0.3,0.9,0.9,1.4,1.8,1.4c1.5,0,2.6-0.8,3.7-1.7c0.3-0.2,0.2-0.5,0.2-0.8c0-2.4,0-4.8,0-7.2
	c0-0.2,0-0.4,0-0.7c0-0.4,0.2-0.5,0.5-0.5c0.6,0,1.3,0,1.9,0c0.5,0,0.6,0.2,0.6,0.6c0,0.9,0,1.9,0,2.8c0,3,0,5.9,0,8.9
	c0,0.7,0,0.7-0.7,0.8h-0.1c-1.2,0-1.2,0-1.6-1.1C560.6,132.5,560.6,132.4,560.5,132.3L560.5,132.3z"/>
<path id="path88" inkscape:connector-curvature="0" class="st0" d="M490.7,134.1c-0.9,0-2.2-0.3-3.5-0.9c-0.6-0.3-0.6-0.3-0.4-0.9
	c0.2-0.5,0.3-1.1,0.7-1.3c0.4-0.3,0.9,0.2,1.4,0.4c0.8,0.2,1.6,0.3,2.5,0.3c0.4,0,0.8-0.1,1.1-0.3c1.1-0.5,1.3-1.4,0.3-2.2
	c-0.5-0.4-1.1-0.6-1.6-0.8c-0.7-0.2-1.3-0.5-2-0.8c-0.5-0.2-0.9-0.5-1.3-0.8c-2.1-1.6-1.5-4.4,0.3-5.5c0.6-0.4,1.3-0.6,2-0.7
	c1.8-0.3,3.5,0,5.1,0.8c0.6,0.3,0.6,0.3,0.3,0.9c-0.2,0.5-0.3,1.1-0.7,1.3c-0.4,0.2-0.9-0.3-1.3-0.4c-0.6-0.2-1.2-0.3-1.9-0.3
	c-0.5,0-1.1,0.1-1.6,0.4c-0.8,0.5-0.8,1.3,0,1.8c0.4,0.3,0.9,0.4,1.3,0.6c0.8,0.3,1.6,0.6,2.3,1c0.6,0.3,1.1,0.7,1.6,1.1
	c1.7,1.7,1.4,4.4-0.8,5.6C493.5,133.9,492.4,134.1,490.7,134.1z"/>
<path id="path90" inkscape:connector-curvature="0" class="st0" d="M473.1,127.3c0-0.7,0-1.3,0.2-2c0.6-2.7,2.5-4.5,5.3-4.9
	c1.8-0.3,3.4,0.1,5,0.8c0.7,0.3,0.7,0.3,0.4,1c-0.2,0.5-0.3,1.1-0.6,1.4c-0.4,0.3-0.9-0.2-1.4-0.4c-0.6-0.1-1.1-0.3-1.7-0.3
	c-1.9-0.1-3.2,0.8-3.8,2.6c-0.4,1.1-0.4,2.2-0.1,3.3c0.5,1.8,1.9,2.7,3.7,2.7c0.9,0,1.8-0.3,2.7-0.7c0.4-0.2,0.6-0.1,0.8,0.3
	c0.1,0.2,0.2,0.4,0.3,0.6c0.5,1.1,0.5,1.2-0.6,1.6c-1.6,0.6-3.3,0.9-5,0.6c-2.9-0.6-4.8-2.8-5.1-5.7
	C473.1,127.9,473.1,127.6,473.1,127.3L473.1,127.3z"/>
<path id="path92" inkscape:connector-curvature="0" class="st0" d="M225.9,117.1c0,1,0,1.9,0,2.9c0,0.8,0,0.8,0.8,0.8
	c0.5,0,1.1-0.2,1.5,0.1c0.4,0.3,0.5,1,0.7,1.4c0.1,0.2,0.2,0.4,0.3,0.8c-0.9,0-1.6,0-2.4,0c-0.8,0-0.8,0-0.8,0.8c0,1.7,0,3.5,0,5.2
	c0,0.1,0,0.3,0,0.4c0.1,1.6,1,2.3,2.5,2c0.7-0.1,0.7-0.1,0.9,0.5c0.1,0.3,0.3,0.7,0.4,1c0.2,0.6,0.2,0.6-0.4,0.8
	c-1.3,0.5-2.6,0.5-3.9,0c-1.4-0.5-2.2-1.5-2.4-3c-0.1-0.5-0.1-1-0.1-1.4c0-1.9,0-3.8,0-5.7c0-0.7,0-0.7-0.7-0.7
	c-1.1,0-1.1,0-1.1-1.2v-0.1c0-1.2-0.1-1.1,1-1.1c0.8,0,0.8,0,0.8-0.8c0-0.6,0-1.3,0-1.9c0-0.3,0-0.5,0.4-0.6
	C224.1,117.4,224.9,117.1,225.9,117.1L225.9,117.1z"/>
<path id="path94" inkscape:connector-curvature="0" class="st0" d="M366.2,117.1c0,1,0,2,0,3c0,0.7,0,0.7,0.7,0.7
	c0.6,0,1.3-0.3,1.7,0.1c0.5,0.6,0.6,1.4,0.9,2.2c-1,0-1.9,0-2.7,0c-0.4,0-0.6,0.1-0.6,0.5c0,2,0,3.9,0,5.9c0,0.1,0,0.3,0,0.4
	c0.3,1.4,1,1.9,2.4,1.7c0.8-0.1,0.8-0.1,1.1,0.6c0.6,1.6,0.6,1.5-1,1.9c-1.1,0.3-2.2,0.1-3.3-0.4c-1.4-0.6-2.1-1.7-2.2-3.1
	c-0.1-1.2-0.1-2.4-0.1-3.6c0-1.1,0-2.2,0-3.4c0-0.4-0.1-0.6-0.5-0.6s-0.9,0.2-1.2-0.1c-0.3-0.3-0.1-0.9-0.1-1.3c0-0.9,0-0.9,0.9-0.9
	c1,0,0.9,0.1,0.9-1c0-0.5,0-1,0-1.5s0.1-0.8,0.6-0.8C364.6,117.4,365.3,117.1,366.2,117.1L366.2,117.1z"/>
<path id="path96" inkscape:connector-curvature="0" class="st0" d="M251.1,117.2c0.1,0.8,0,1.6,0.1,2.4c0,0.2,0,0.5,0,0.7
	c0,0.4,0.1,0.7,0.6,0.6c0.4,0,0.8,0,1.2,0s0.6,0.1,0.7,0.5c0.2,0.6,0.5,1.2,0.6,1.9c-0.9,0-1.8,0-2.6,0c-0.4,0-0.6,0.1-0.6,0.5
	c0,2,0,3.9,0,5.9c0,0.1,0,0.3,0.1,0.4c0.3,1.4,1,1.9,2.4,1.7c0.8-0.1,0.8-0.1,1.1,0.6c0.6,1.5,0.6,1.5-1,1.9
	c-1.1,0.3-2.2,0.1-3.3-0.4c-1.4-0.6-2.1-1.7-2.2-3.2c-0.1-1.2,0-2.4,0-3.7c0-1,0-2.1,0-3.1c0-0.5-0.1-0.7-0.6-0.7
	c-1.2,0-1.2,0-1.2-1.2v-0.1c0-1.1-0.1-1,1-1c0.8,0,0.8,0,0.8-0.8c0-0.6,0-1.3,0-1.9c0-0.2,0-0.4,0.3-0.5s0.6-0.1,0.9-0.2
	C250,117.3,250.5,117.1,251.1,117.2z"/>
<path id="path98" inkscape:connector-curvature="0" class="st0" d="M422.9,124.3c0,2.9,0,5.8,0,8.7c0,0.7,0,0.7-0.7,0.7
	c-0.6,0-1.2,0-1.7,0c-0.4,0-0.6-0.1-0.6-0.5c0-0.2,0-0.4,0-0.6c0-5.5,0-11,0-16.4c0-0.2,0-0.4,0-0.7c0-0.3,0.1-0.5,0.4-0.5
	c0.7,0,1.3-0.1,2-0.2c0.5-0.1,0.6,0.1,0.6,0.6c0,2.3,0,4.6,0,6.9C422.9,123,422.9,123.6,422.9,124.3L422.9,124.3z"/>
<path id="path100" inkscape:connector-curvature="0" class="st0" d="M315.4,124.2c0,2.9,0,5.8,0,8.7c0,0.7,0,0.7-0.7,0.8
	c-0.6,0-1.2,0-1.7,0s-0.6-0.2-0.6-0.6c0-0.2,0-0.3,0-0.5c0-5.5,0-11,0-16.5c0-0.2,0-0.4,0-0.7c0-0.2,0.1-0.4,0.3-0.4
	c0.8-0.1,1.5-0.1,2.3-0.2c0.3,0,0.4,0.1,0.4,0.4c0,0.2,0,0.4,0,0.7C315.4,118.7,315.4,121.5,315.4,124.2L315.4,124.2z"/>
<path id="path102" inkscape:connector-curvature="0" class="st0" d="M532.1,123.1c-1.5,0.3-2.7,1-3.9,1.8c-0.5,0.4-0.7,0.8-0.7,1.4
	c0,2.2,0,4.5,0,6.7c0,0.7,0,0.7-0.7,0.7c-0.6,0-1.2,0-1.8,0c-0.4,0-0.5-0.1-0.5-0.5c0-0.1,0-0.2,0-0.3c0-3.8,0-7.6,0-11.4
	c0-0.3-0.2-0.7,0.3-0.8c0.6-0.1,1.3,0,1.5,0.4c0.3,0.5,0.5,1.1,0.8,1.7c0.3-0.2,0.6-0.4,0.9-0.6c0.9-0.6,1.8-1.2,2.9-1.4
	c0.4-0.1,0.7,0,0.8,0.5S531.9,122.4,532.1,123.1z"/>
<path id="path104" inkscape:connector-curvature="0" class="st0" d="M261.3,127.2c0,2,0,3.9,0,5.9c0,0.5-0.1,0.7-0.6,0.7
	c-0.7,0-1.3,0-2,0c-0.3,0-0.4-0.1-0.4-0.4c0-0.2,0-0.3,0-0.5c0-3.7,0-7.5,0-11.2c0-0.9,0-0.9,0.9-0.9c0.5,0,1.1,0,1.6,0
	c0.4,0,0.5,0.2,0.5,0.6C261.3,123.3,261.3,125.3,261.3,127.2z"/>
<path id="path106" inkscape:connector-curvature="0" class="st1" d="M546.8,80.2c0,1.4,0,2.8,0,4.2c0,0.5-0.2,0.7-0.7,0.7
	c-0.9,0-1.8,0-2.7,0c-0.4,0-0.6-0.1-0.6-0.6c0-2.9,0-5.8,0-8.6c0-0.4,0.1-0.6,0.6-0.6c0.9,0,1.8,0,2.7,0c0.7,0,0.7,0,0.7,0.7
	C546.8,77.4,546.8,78.8,546.8,80.2z"/>
<path id="path108" inkscape:connector-curvature="0" class="st0" d="M470,127.2c0,2,0,3.9,0,5.9c0,0.5-0.1,0.7-0.6,0.7
	c-0.6,0-1.3,0-1.9,0c-0.3,0-0.5-0.1-0.5-0.4c0-0.1,0-0.3,0-0.4c0-3.8,0-7.6,0-11.3c0-0.8,0-0.8,0.8-0.8c0.5,0,1,0,1.5,0
	s0.7,0.2,0.7,0.7c0,1.8,0,3.6,0,5.4C470,126.9,470,127.1,470,127.2z"/>
<path id="path110" inkscape:connector-curvature="0" class="st1" d="M515.7,81.8c0,0.9,0,1.8,0,2.7c0,0.4-0.1,0.5-0.5,0.5
	c-1,0-2,0-3,0c-0.4,0-0.5-0.2-0.5-0.5c0-1.8,0-3.6,0-5.4c0-0.4,0.1-0.6,0.6-0.6c1,0,1.9,0,2.9,0c0.4,0,0.5,0.2,0.5,0.6
	C515.7,80.1,515.7,80.9,515.7,81.8z"/>
<path id="path112" inkscape:connector-curvature="0" class="st0" d="M470.2,116.9c0,1-0.9,1.8-1.9,1.8s-1.7-0.9-1.7-1.9
	s0.9-1.7,1.8-1.7C469.4,115.1,470.2,115.9,470.2,116.9L470.2,116.9z"/>
<path id="path114" inkscape:connector-curvature="0" class="st0" d="M261.6,116.8c0,1-0.8,1.8-1.8,1.8s-1.7-0.8-1.7-1.8
	s0.8-1.8,1.8-1.8C260.8,115.1,261.6,115.9,261.6,116.8z"/>
<path id="path116" inkscape:connector-curvature="0" class="st2" d="M46.6,36.4c0,7.5-6.3,13.8-13.9,13.6
	c-7.2-0.2-13.5-6.1-13.4-13.9c0.1-7.4,6.2-13.6,13.9-13.5C40.5,22.8,46.6,28.9,46.6,36.4z"/>
<path id="path118" inkscape:connector-curvature="0" class="st2" d="M66.7,47.7c0,0.3-0.2,0.4-0.4,0.6c-0.9,0.9-1.8,1.8-2.7,2.8
	c-1.4,1.5-2.9,2.9-4.3,4.4c-0.3,0.4-0.6,0.4-1.1,0.1c-2.4-1.4-4.8-1.6-7.3-0.4c-0.4,0.2-0.6,0.1-0.9-0.2c-0.9-1.1-1.8-2.1-2.7-3.2
	c-0.9-1.1-1.9-2.2-2.8-3.3c-0.4-0.5-0.4-0.5,0-1c2.1-2.2,3.4-4.7,4-7.6c0.1-0.7,0.2-0.6,0.8-0.6c2.3,0.3,4.7,0.6,7,0.9
	c1.9,0.2,3.7,0.5,5.6,0.7c0.7,0.1,1.4,0.2,2.1,0.2c0.6,0.1,0.7,0.3,0.7,0.8c0,1.5,0.3,2.9,1,4.3c0.2,0.4,0.5,0.8,0.7,1.2
	C66.6,47.5,66.6,47.6,66.7,47.7z"/>
<path id="path120" inkscape:connector-curvature="0" class="st2" d="M81.2,41.9c0,3.8-3.2,7-7,7c-3.7,0-7-3.1-7-7.1
	c0-3.9,3.2-7,7.1-7C78.4,34.8,81.3,38.4,81.2,41.9z"/>
<path id="path122" inkscape:connector-curvature="0" class="st2" d="M59.3,61.8c0,2.7-2.4,5.1-5,5c-2.5,0-4.9-1.9-5-5c0-2.7,2-5,5-5
	S59.2,59.2,59.3,61.8z"/>
<path id="path124" inkscape:connector-curvature="0" class="st2" d="M57.3,19.3c0,1.1-1.1,2.3-2.3,2.3s-2.3-1.1-2.3-2.2
	c0-1.2,1.1-2.3,2.3-2.3C56.1,17,57.2,18.1,57.3,19.3z"/>
<path id="path126" inkscape:connector-curvature="0" class="st2" d="M31.8,60.7c1,0,2,1,2,1.9c0,1-1.1,2-2,2c-1,0-2-1-2-2
	C29.7,61.7,30.6,60.6,31.8,60.7z"/>
<path id="path128" inkscape:connector-curvature="0" class="st2" d="M384.7,71.8c0,2.1-0.4,4.2-1.6,6.2c-1.9,3.1-5.2,4.5-8.7,3.6
	c-2.1-0.5-3.6-1.8-4.7-3.7c-1.1-1.8-1.5-3.8-1.5-5.9c0-2.2,0.4-4.3,1.5-6.3c1.1-1.9,2.6-3.3,4.7-3.9c3.1-0.9,6.4-0.1,8.5,2.9
	C384.2,66.7,384.7,69.1,384.7,71.8L384.7,71.8z"/>
<path id="path130" inkscape:connector-curvature="0" class="st2" d="M339.4,71.6c0-2.2,0.5-4.4,1.7-6.3c2.1-3.3,5.8-4.7,9.3-3.4
	c1.8,0.6,3.1,1.8,4,3.5c2.2,4.2,2.1,8.4-0.1,12.5c-1,1.9-2.7,3.2-4.9,3.7c-3.3,0.8-6.4-0.5-8.3-3.3C339.9,76.3,339.4,74,339.4,71.6z
	"/>
<path id="path132" inkscape:connector-curvature="0" class="st2" d="M230.7,71.6c0-2.9,0-5.7,0-8.6c0-1.1-0.1-1,1-1
	c1.6,0,3.2,0,4.8,0c3.3,0,5.5,1.6,6.5,4.8c0.5,1.4,0.6,2.7,0.7,4.2c0.1,1.6-0.1,3.2-0.5,4.8c-1,3.5-3.5,5.4-7.1,5.5
	c-1.6,0-3.1,0-4.7,0c-0.7,0-0.7,0-0.7-0.8v-0.1C230.7,77.5,230.7,74.5,230.7,71.6z"/>
<path id="path134" inkscape:connector-curvature="0" class="st2" d="M280.1,66.5c0-1.3,0-2.6,0-3.8c0-0.5,0.1-0.7,0.6-0.7
	c1.5,0.1,2.9-0.1,4.4,0.1c0.2,0,0.4,0.1,0.7,0.1c2.6,0.5,4,2.3,3.4,5.6c-0.2,1-0.8,1.7-1.7,2.2c-1,0.6-2,0.8-3.1,0.9
	c-1.2,0.1-2.5,0-3.7,0c-0.4,0-0.6-0.1-0.6-0.6C280.2,69.1,280.1,67.8,280.1,66.5L280.1,66.5z"/>
<path id="path136" inkscape:connector-curvature="0" class="st2" d="M545.1,44.6c-2.4,0-4.9,0-7.3,0c-0.6,0-1-0.1-1.3-0.7
	c-1.4-2.4-2.6-4.9-3.9-7.4c-1-1.8-1.9-3.6-2.9-5.3c-0.3-0.5-0.4-0.9,0-1.5c2.2-3.7,4.3-7.4,6.4-11.1c0.3-0.5,0.6-0.5,1-0.5
	c4.1,0,8.3,0,12.4,0c0.7,0,1.5,0,2.2,0c0.4,0,0.6,0.1,0.8,0.5c1.6,2.7,3.2,5.4,4.8,8.1c0.9,1.5,1.8,3,2.7,4.5
	c0.3,0.4,0.3,0.8,0.1,1.2c-1.4,2.4-2.8,4.8-4.2,7.2c-0.8,1.4-1.6,2.7-2.3,4.1c-0.3,0.5-0.6,0.8-1.3,0.8
	C550,44.6,547.5,44.6,545.1,44.6z"/>
<path id="path138" inkscape:connector-curvature="0" class="st2" d="M171.5,64.3c1.4,3.5,2.6,6.9,4,10.3c-2.6,0.1-5.2,0-7.9,0
	C169,71.2,170.2,67.9,171.5,64.3z"/>
<path id="path140" inkscape:connector-curvature="0" class="st2" d="M522.3,34.9c0.4,0,0.5,0.2,0.6,0.4c0.3,0.6,0.7,1.2,1,1.9
	c1.8,3.3,3.6,6.7,5.5,10c0.1,0.1,0.1,0.2,0.2,0.3c0.3,0.4,0.2,0.8-0.1,1.2c-1.2,1.3-2.3,2.6-3.4,3.9c-1.7,2-3.5,4-5.3,6
	c-0.6,0.7-0.6,0.7-1.5,0.3c-3-1.3-6-2.6-9-3.9c-1-0.4-2-0.8-2.9-1.3c-0.4-0.2-0.5-0.4-0.5-0.8c0.2-1.6,0.3-3.2,0.4-4.8
	c0.2-1.8,0.3-3.6,0.5-5.3c0.1-1.1,0.2-2.3,0.3-3.4c0-0.5,0.3-0.6,0.7-0.7c2.3-0.6,4.6-1.3,6.8-2c2.1-0.6,4.1-1.2,6.2-1.7
	C522,35,522.2,35,522.3,34.9z"/>
<path id="path142" inkscape:connector-curvature="0" class="st2" d="M576.6,127.1c0,1.2-0.2,2.1-0.8,3c-1,1.5-3.4,1.9-4.9,0.8
	c-0.2-0.2-0.3-0.4-0.3-0.7c0-2,0-4,0-6c0-0.4,0.2-0.6,0.5-0.8c2.2-1.3,4.8-0.1,5.3,2.4C576.6,126.4,576.6,126.8,576.6,127.1z"/>
<path id="path144" inkscape:connector-curvature="0" class="st2" d="M193.7,127.3c0-0.9,0-1.9,0-2.8c0-0.5,0.2-0.8,0.6-1
	c2.1-1.1,4.3-0.3,5,2c0.4,1.3,0.4,2.6-0.1,3.9c-0.8,2.2-3.3,2.9-5.3,1.7c-0.3-0.2-0.4-0.5-0.4-0.8
	C193.7,129.2,193.7,128.2,193.7,127.3L193.7,127.3z"/>
<path id="path146" inkscape:connector-curvature="0" class="st2" d="M391.2,127.2c0-0.9,0-1.9,0-2.8c0-0.5,0.2-0.7,0.5-0.9
	c2.1-1.2,4.5-0.3,5.2,2c0.4,1.4,0.4,2.9-0.3,4.2c-0.9,1.8-3.5,2.4-5.1,1.2c-0.3-0.2-0.3-0.5-0.3-0.7
	C391.2,129.2,391.2,128.2,391.2,127.2L391.2,127.2z"/>
<path id="path148" inkscape:connector-curvature="0" class="st2" d="M160.3,127.2c0,1.1-0.2,2-0.8,2.9c-1.5,2-4.6,1.9-5.8-0.4
	c-0.9-1.7-0.9-3.4,0.1-5c0.7-1.3,1.8-1.8,3.3-1.7c1.4,0.1,2.3,0.9,2.9,2.2C160.2,125.8,160.3,126.5,160.3,127.2z"/>
<path id="path150" inkscape:connector-curvature="0" class="st2" d="M350.6,126c0.1-1.8,1.2-3,2.9-3c1.7,0,2.8,1,3,3
	C354.6,126,352.6,126,350.6,126z"/>
<path id="path152" inkscape:connector-curvature="0" class="st2" d="M274.8,127.3c0,0.8-0.1,1.5-0.5,2.2c-0.7,1.3-1.8,2-3.3,2
	c-1.5-0.1-2.6-0.9-3.1-2.4c-0.4-1.1-0.4-2.3,0-3.4c0.5-1.8,2-2.9,3.7-2.7c1.7,0.1,3,1.4,3.2,3.3
	C274.8,126.6,274.8,126.9,274.8,127.3L274.8,127.3z"/>
<path id="path154" inkscape:connector-curvature="0" class="st2" d="M436.7,127.3c0,1-0.2,1.8-0.7,2.6c-0.8,1.1-1.8,1.7-3.2,1.6
	c-1.4-0.1-2.3-0.8-2.9-2s-0.6-2.6-0.2-3.8c0.5-1.8,2-2.8,3.7-2.6c1.7,0.1,3,1.4,3.2,3.3C436.6,126.6,436.6,126.9,436.7,127.3
	L436.7,127.3z"/>
<path id="path156" inkscape:connector-curvature="0" class="st2" d="M405.8,127.3c0-0.8,0.1-1.7,0.6-2.4c0.7-1.3,1.8-2,3.4-1.9
	c1.5,0.1,2.5,1,3,2.4c0.4,1,0.4,2.1,0.1,3.2c-0.4,1.8-1.9,3-3.7,2.9c-1.8-0.1-3.1-1.3-3.3-3.2C405.8,127.9,405.8,127.6,405.8,127.3z
	"/>
<path id="path158" inkscape:connector-curvature="0" class="st2" d="M544.8,127.2c0,0.9-0.2,1.7-0.5,2.4c-0.7,1.3-1.8,2-3.3,1.9
	s-2.6-0.9-3.1-2.3c-0.5-1.4-0.5-2.8,0.2-4.1c0.7-1.5,2-2.2,3.5-2.1c1.4,0.1,2.6,1.1,3.1,2.5C544.7,126.1,544.8,126.7,544.8,127.2
	L544.8,127.2z"/>
<path id="path160" inkscape:connector-curvature="0" class="st2" d="M303.1,127.9c0.4,0,0.8,0,1.2,0c0.4,0,0.6,0.1,0.6,0.5
	c0,0.2,0,0.3,0,0.5c0.1,0.9-0.1,1.6-0.9,2.1c-1,0.5-2,0.9-3.1,0.6c-0.7-0.2-1.1-1-1.1-1.8c0.1-0.9,0.7-1.7,1.6-1.8
	C302,127.8,302.5,127.9,303.1,127.9L303.1,127.9L303.1,127.9z"/>
<path id="path162" inkscape:connector-curvature="0" class="st2" d="M240.4,129.2c0.3,1-0.4,1.5-1.2,2c-0.6,0.3-1.2,0.5-1.9,0.5
	c-1,0-1.8-0.6-1.9-1.6c-0.1-0.9,0.5-2,1.4-2.2c1.1-0.2,2.2-0.1,3.4-0.1c0.2,0,0.3,0.1,0.3,0.3C240.4,128.5,240.4,128.8,240.4,129.2z
	"/>
<path id="path164" inkscape:connector-curvature="0" class="st2" d="M380.7,129.2c0.3,0.9-0.4,1.4-1.1,1.8c-0.6,0.4-1.3,0.6-2,0.6
	c-1.1,0-1.9-0.7-2-1.7s0.7-2,1.7-2.1s2,0,3-0.1c0.3,0,0.5,0.1,0.5,0.5C380.7,128.6,380.7,128.8,380.7,129.2L380.7,129.2z"/>
</svg>
