<?xml version="1.0" encoding="UTF-8" standalone="no"?>
<!-- Created with Inkscape (http://www.inkscape.org/) -->

<svg
   xmlns:dc="http://purl.org/dc/elements/1.1/"
   xmlns:cc="http://creativecommons.org/ns#"
   xmlns:rdf="http://www.w3.org/1999/02/22-rdf-syntax-ns#"
   xmlns:svg="http://www.w3.org/2000/svg"
   xmlns="http://www.w3.org/2000/svg"
   xmlns:sodipodi="http://sodipodi.sourceforge.net/DTD/sodipodi-0.dtd"
   xmlns:inkscape="http://www.inkscape.org/namespaces/inkscape"
   width="20.901203mm"
   height="17.645153mm"
   viewBox="0 0 20.901204 17.645153"
   version="1.1"
   id="svg2143"
   inkscape:version="0.92.5 (2060ec1f9f, 2020-04-08)"
   sodipodi:docname="icon-mzmine-processing.svg">
  <defs
     id="defs2137" />
  <sodipodi:namedview
     id="base"
     pagecolor="#ffffff"
     bordercolor="#666666"
     borderopacity="1.0"
     inkscape:pageopacity="0.0"
     inkscape:pageshadow="2"
     inkscape:zoom="1.979899"
     inkscape:cx="-84.780882"
     inkscape:cy="50.638282"
     inkscape:document-units="mm"
     inkscape:current-layer="layer1"
     showgrid="false"
     inkscape:snap-global="false"
     inkscape:window-width="1920"
     inkscape:window-height="1016"
     inkscape:window-x="0"
     inkscape:window-y="27"
     inkscape:window-maximized="1"
     fit-margin-top="0"
     fit-margin-left="0"
     fit-margin-right="0"
     fit-margin-bottom="0" />
  <metadata
     id="metadata2140">
    <rdf:RDF>
      <cc:Work
         rdf:about="">
        <dc:format>image/svg+xml</dc:format>
        <dc:type
           rdf:resource="http://purl.org/dc/dcmitype/StillImage" />
        <dc:title></dc:title>
      </cc:Work>
    </rdf:RDF>
  </metadata>
  <g
     inkscape:label="Layer 1"
     inkscape:groupmode="layer"
     id="layer1"
     transform="translate(-131.4999,-85.478321)">
    <path
       style="color:#000000;fill:none;stroke:#000000;stroke-width:0.76767898;stroke-linecap:square;stroke-linejoin:miter"
       id="path5563-6"
       d="m 139.7344,98.14502 c 0,-2.30304 3.07071,-2.30304 4.60607,-3.83839 0.76768,-0.76768 -1.53536,-0.76768 -1.53536,-4.60607 0,-2.55868 1.02332,-3.8384 3.07072,-3.8384 2.0474,0 3.07072,1.27972 3.07072,3.8384 0,3.83839 -2.30304,3.83839 -1.53536,4.60607 1.53536,1.53535 4.60607,1.53535 4.60607,3.83839"
       inkscape:connector-curvature="0" />
    <g
       id="g2074"
       transform="matrix(0.74457758,0,0,0.74457758,122.51812,-39.460525)">
      <g
         id="g2050">
        <path
           style="opacity:1;fill:#ffffff;fill-opacity:1;stroke:#ffffff;stroke-width:0.15699881;stroke-linecap:butt;stroke-linejoin:miter;stroke-miterlimit:4;stroke-dasharray:none;stroke-dashoffset:0;stroke-opacity:1"
           d="m 13.088528,190.46796 c -0.18887,-0.18887 -0.192312,-0.32052 -0.192312,-7.35591 0,-7.0354 0.0034,-7.16705 0.192312,-7.35592 0.185885,-0.18588 0.320519,-0.19231 4.028653,-0.19231 h 3.836341 l 0.03393,1.19498 c 0.03749,1.32044 0.113877,1.51838 0.754117,1.95412 0.285505,0.19432 0.433967,0.21635 1.457533,0.21635 h 1.139649 v 5.7144 c 0,5.0667 -0.01713,5.73152 -0.151102,5.8655 -0.133763,0.13376 -0.768205,0.1511 -5.528954,0.1511 -5.249644,0 -5.382436,-0.005 -5.570163,-0.19231 z"
           id="path2027"
           inkscape:connector-curvature="0" />
        <path
           style="opacity:1;fill:#ffffff;fill-opacity:1;stroke:#ffffff;stroke-width:0.17826091;stroke-linecap:butt;stroke-linejoin:miter;stroke-miterlimit:4;stroke-dasharray:none;stroke-dashoffset:0;stroke-opacity:1"
           d="m 22.143899,177.90823 c -0.171598,-0.1716 -0.218356,-0.36393 -0.218356,-0.89816 v -0.6798 l 0.873424,0.8683 c 0.480382,0.47756 0.873423,0.88173 0.873423,0.89816 0,0.0164 -0.29478,0.0299 -0.655068,0.0299 -0.509497,0 -0.703591,-0.0485 -0.873423,-0.21835 z"
           id="path2029"
           inkscape:connector-curvature="0" />
        <g
           id="g1939"
           transform="matrix(0.03191804,0,0,0.03191804,10.491506,174.97038)"
           style="stroke:#000000;stroke-width:13.53466606;stroke-miterlimit:4;stroke-dasharray:none;stroke-opacity:1">
          <path
             id="path1884-3"
             d="m 454.962,110.751 c -0.018,-0.185 -0.05,-0.365 -0.081,-0.545 -0.011,-0.06 -0.016,-0.122 -0.028,-0.182 -0.043,-0.215 -0.098,-0.425 -0.159,-0.632 -0.007,-0.025 -0.012,-0.052 -0.02,-0.077 -0.065,-0.213 -0.141,-0.421 -0.224,-0.625 -0.008,-0.021 -0.015,-0.043 -0.023,-0.064 -0.081,-0.195 -0.173,-0.384 -0.269,-0.57 -0.016,-0.031 -0.029,-0.063 -0.045,-0.094 -0.093,-0.173 -0.196,-0.339 -0.301,-0.504 -0.027,-0.042 -0.05,-0.086 -0.077,-0.127 -0.103,-0.154 -0.216,-0.3 -0.33,-0.446 -0.037,-0.048 -0.07,-0.098 -0.109,-0.145 -0.142,-0.173 -0.294,-0.338 -0.45,-0.498 -0.015,-0.015 -0.027,-0.031 -0.042,-0.046 l -104,-104 C 348.786,2.178 348.766,2.163 348.747,2.145 348.591,1.992 348.43,1.844 348.261,1.705 348.206,1.66 348.148,1.622 348.092,1.579 347.954,1.472 347.817,1.365 347.672,1.268 347.621,1.234 347.567,1.206 347.516,1.173 347.36,1.074 347.204,0.976 347.041,0.889 347.005,0.87 346.967,0.854 346.93,0.836 346.749,0.743 346.565,0.653 346.376,0.574 346.352,0.564 346.327,0.557 346.302,0.547 346.1,0.466 345.896,0.39 345.686,0.326 345.659,0.318 345.632,0.313 345.605,0.305 345.399,0.245 345.19,0.19 344.977,0.147 344.914,0.134 344.849,0.129 344.785,0.118 344.608,0.087 344.431,0.056 344.249,0.038 344.001,0.013 343.751,0 343.5,0 H 95.5 C 73.72,0 56,17.72 56,39.5 v 432 c 0,21.78 17.72,39.5 39.5,39.5 h 320 c 21.78,0 39.5,-17.72 39.5,-39.5 v -360 c 0,-0.251 -0.013,-0.501 -0.038,-0.749 z M 351,25.606 429.394,104 H 375.5 C 361.991,104 351,93.01 351,79.5 Z M 415.5,496 H 95.5 C 81.991,496 71,485.01 71,471.5 V 39.5 C 71,25.99 81.991,15 95.5,15 H 336 v 64.5 c 0,21.78 17.72,39.5 39.5,39.5 H 440 v 352.5 c 0,13.51 -10.991,24.5 -24.5,24.5 z"
             inkscape:connector-curvature="0"
             style="stroke:#000000;stroke-width:13.53466606;stroke-miterlimit:4;stroke-dasharray:none;stroke-opacity:1" />
          <g
             id="g1886"
             style="stroke:#000000;stroke-width:13.53466606;stroke-miterlimit:4;stroke-dasharray:none;stroke-opacity:1" />
          <g
             id="g1888"
             style="stroke:#000000;stroke-width:13.53466606;stroke-miterlimit:4;stroke-dasharray:none;stroke-opacity:1" />
          <g
             id="g1890"
             style="stroke:#000000;stroke-width:13.53466606;stroke-miterlimit:4;stroke-dasharray:none;stroke-opacity:1" />
          <g
             id="g1892"
             style="stroke:#000000;stroke-width:13.53466606;stroke-miterlimit:4;stroke-dasharray:none;stroke-opacity:1" />
          <g
             id="g1894"
             style="stroke:#000000;stroke-width:13.53466606;stroke-miterlimit:4;stroke-dasharray:none;stroke-opacity:1" />
          <g
             id="g1896"
             style="stroke:#000000;stroke-width:13.53466606;stroke-miterlimit:4;stroke-dasharray:none;stroke-opacity:1" />
          <g
             id="g1898"
             style="stroke:#000000;stroke-width:13.53466606;stroke-miterlimit:4;stroke-dasharray:none;stroke-opacity:1" />
          <g
             id="g1900"
             style="stroke:#000000;stroke-width:13.53466606;stroke-miterlimit:4;stroke-dasharray:none;stroke-opacity:1" />
          <g
             id="g1902"
             style="stroke:#000000;stroke-width:13.53466606;stroke-miterlimit:4;stroke-dasharray:none;stroke-opacity:1" />
          <g
             id="g1904"
             style="stroke:#000000;stroke-width:13.53466606;stroke-miterlimit:4;stroke-dasharray:none;stroke-opacity:1" />
          <g
             id="g1906"
             style="stroke:#000000;stroke-width:13.53466606;stroke-miterlimit:4;stroke-dasharray:none;stroke-opacity:1" />
          <g
             id="g1908"
             style="stroke:#000000;stroke-width:13.53466606;stroke-miterlimit:4;stroke-dasharray:none;stroke-opacity:1" />
          <g
             id="g1910"
             style="stroke:#000000;stroke-width:13.53466606;stroke-miterlimit:4;stroke-dasharray:none;stroke-opacity:1" />
          <g
             id="g1912"
             style="stroke:#000000;stroke-width:13.53466606;stroke-miterlimit:4;stroke-dasharray:none;stroke-opacity:1" />
          <g
             id="g1914"
             style="stroke:#000000;stroke-width:13.53466606;stroke-miterlimit:4;stroke-dasharray:none;stroke-opacity:1" />
        </g>
      </g>
      <g
         aria-label="&lt;XML&gt;"
         style="font-style:normal;font-weight:normal;font-size:2.82017064px;line-height:2.25;font-family:sans-serif;letter-spacing:0px;word-spacing:0px;fill:#000000;fill-opacity:1;stroke:none;stroke-width:0.0528782"
         id="text1943">
        <path
           d="m 14.958861,186.45409 -1.327463,0.45717 1.327463,0.45443 v 0.34426 l -1.76536,-0.63757 v -0.32498 l 1.76536,-0.63757 z"
           style="font-weight:bold;stroke-width:0.0528782"
           id="path836"
           inkscape:connector-curvature="0" />
        <path
           d="m 16.662255,186.74464 0.713305,1.04931 h -0.552191 l -0.480586,-0.70229 -0.476455,0.70229 h -0.554945 l 0.713305,-1.04931 -0.685765,-1.00661 h 0.553569 l 0.450291,0.66235 0.448914,-0.66235 h 0.556323 z"
           style="font-weight:bold;stroke-width:0.0528782"
           id="path838"
           inkscape:connector-curvature="0" />
        <path
           d="m 17.690902,185.73803 h 0.674747 l 0.468193,1.10025 0.470946,-1.10025 h 0.673371 v 2.05592 h -0.501241 v -1.50373 l -0.473701,1.10852 H 18.66722 l -0.4737,-1.10852 v 1.50373 h -0.502618 z"
           style="font-weight:bold;stroke-width:0.0528782"
           id="path840"
           inkscape:connector-curvature="0" />
        <path
           d="m 20.497302,185.73803 h 0.530159 v 1.6552 h 0.930877 v 0.40072 h -1.461036 z"
           style="font-weight:bold;stroke-width:0.0528782"
           id="path842"
           inkscape:connector-curvature="0" />
        <path
           d="m 22.334269,186.45409 v -0.34426 l 1.765361,0.63757 v 0.32498 l -1.765361,0.63757 v -0.34426 l 1.32884,-0.45443 z"
           style="font-weight:bold;stroke-width:0.0528782"
           id="path844"
           inkscape:connector-curvature="0" />
      </g>
    </g>
  </g>
</svg>
