<?xml version="1.0" encoding="UTF-8" standalone="no"?>
<!-- Generator: Adobe Illustrator 26.3.1, SVG Export Plug-In . SVG Version: 6.00 Build 0)  -->

<svg
   xmlns:dc="http://purl.org/dc/elements/1.1/"
   xmlns:cc="http://creativecommons.org/ns#"
   xmlns:rdf="http://www.w3.org/1999/02/22-rdf-syntax-ns#"
   xmlns:svg="http://www.w3.org/2000/svg"
   xmlns="http://www.w3.org/2000/svg"
   xmlns:sodipodi="http://sodipodi.sourceforge.net/DTD/sodipodi-0.dtd"
   xmlns:inkscape="http://www.inkscape.org/namespaces/inkscape"
   version="1.1"
   id="Layer_1"
   x="0px"
   y="0px"
   viewBox="0 0 532.5 143.1"
   style="enable-background:new 0 0 532.5 143.1;"
   xml:space="preserve"
   sodipodi:docname="Fermo_logo_blue.svg"
   inkscape:version="0.92.5 (2060ec1f9f, 2020-04-08)"><metadata
   id="metadata43"><rdf:RDF><cc:Work
       rdf:about=""><dc:format>image/svg+xml</dc:format><dc:type
         rdf:resource="http://purl.org/dc/dcmitype/StillImage" /><dc:title></dc:title></cc:Work></rdf:RDF></metadata><defs
   id="defs41" /><sodipodi:namedview
   pagecolor="#ffffff"
   bordercolor="#666666"
   borderopacity="1"
   objecttolerance="10"
   gridtolerance="10"
   guidetolerance="10"
   inkscape:pageopacity="0"
   inkscape:pageshadow="2"
   inkscape:window-width="1920"
   inkscape:window-height="1016"
   id="namedview39"
   showgrid="false"
   inkscape:zoom="2.3424157"
   inkscape:cx="252.78085"
   inkscape:cy="49.454246"
   inkscape:window-x="0"
   inkscape:window-y="27"
   inkscape:window-maximized="1"
   inkscape:current-layer="Layer_1" />
<style
   type="text/css"
   id="style2">
	.st0{fill:#FFFFFF;}
	.st1{opacity:0.5;fill:#9F9F9F;enable-background:new    ;}
</style>
<path
   class="st0"
   d="M88.6,40.1H56.8l-2.7,16h29.5l-5.9,34.4H48.4l-8.6,48.8H0L23.5,3.9h71.2C94.7,3.9,88.6,40.1,88.6,40.1z"
   id="path4"
   style="fill:#116789;fill-opacity:1" />
<path
   class="st0"
   d="M532.5,53.3c0,11.4-1.5,22.4-4.6,33.1s-7.5,20.3-13.3,28.7s-12.9,15.2-21.3,20.3s-17.9,7.7-28.5,7.7  c-7.7,0-14.4-1.3-20.4-3.8c-5.9-2.6-10.9-6.2-15-10.9s-7.2-10.4-9.3-16.9c-2.1-6.6-3.2-13.9-3.2-21.9c0-11.4,1.5-22.4,4.6-33.1  s7.5-20.2,13.2-28.6s12.8-15.1,21.1-20.2c8.4-5.1,17.8-7.7,28.4-7.7c8,0,15,1.3,21,3.8c6,2.6,11,6.2,15,10.8c4,4.7,7,10.3,9.1,16.8  S532.5,45.2,532.5,53.3L532.5,53.3z M491.5,59c0-5.7-1-10.5-2.9-14.3s-4.8-5.7-8.8-5.7c-3.6,0-6.7,1.5-9.5,4.5  c-2.7,3-5,6.7-6.9,11.2s-3.3,9.3-4.2,14.5c-1,5.2-1.4,10.1-1.4,14.7c0,5.6,0.9,10.3,2.6,14.1s4.8,5.6,9.3,5.6c3.4,0,6.5-1.5,9.3-4.4  c2.7-2.9,5-6.6,6.9-11.1c1.8-4.5,3.3-9.3,4.2-14.5C491.1,68.3,491.5,63.5,491.5,59z"
   id="path6"
   style="fill:#116789;fill-opacity:1" />
<g
   id="g12">
	<path
   class="st0"
   d="M244.7,127.5c-0.9-2-1.9-4.4-2.7-4.4c-0.9,0-2.1,2.5-3.2,4.8c-1.7,3.4-4,8-8.1,11.5h22.5   C248.5,136,246.3,131.1,244.7,127.5z"
   id="path8"
   style="fill:#116789;fill-opacity:1" />
	<path
   class="st0"
   d="M221.3,139.4h3.3c6.4-2.9,9.2-8.6,11.3-13c1.7-3.5,3.2-6.6,6.2-6.6c2.9,0.1,4.2,3,5.7,6.3   c2.2,4.9,4.8,11,12.8,13.2h3l-12.8-57.8c7.1-3,12.6-7.9,16.5-14.7s5.8-15.1,5.8-24.9c0-12.7-3.5-22.2-10.5-28.4   c-6.9-6.4-17-9.6-30.1-9.6h-46.9l-23.5,135.4h38.3l8.6-49.4h5L221.3,139.4L221.3,139.4z M218.1,37.4h5.4c1.9,0,3.9,0.6,6,1.9   c2.1,1.2,3.2,3.8,3.2,7.8c0,5.6-1.5,9.6-4.6,12c-3,2.3-6.4,3.4-10.2,3.4h-4.2L218.1,37.4L218.1,37.4z"
   id="path10"
   style="fill:#116789;fill-opacity:1" />
</g>
<g
   id="g22">
	<path
   class="st0"
   d="M131.6,139.4c-2.2-2.4-4.2-5.2-5.9-8.2c-1.4,2.9-3.2,5.8-5.5,8.2H131.6z"
   id="path14"
   style="fill:#116789;fill-opacity:1" />
	<path
   class="st0"
   d="M135.1,122.9c-0.8-2.8-1.8-6-2.6-6.1c-0.9,0-2.2,3.4-3.3,6.5c-0.5,1.2-1,2.5-1.5,3.9c2.4,4.9,5.4,9.1,9.1,12.3   h6.4C138.6,134.6,136.5,127.8,135.1,122.9L135.1,122.9z"
   id="path16"
   style="fill:#116789;fill-opacity:1" />
	<path
   class="st0"
   d="M168.7,39.1l6.1-35.2h-70.2l-22.3,129c7.8-11.5,12.1-28.1,15.5-41.3c3.6-13.7,5.7-22,10.6-21.8   c4.7,0.2,6.2,8.1,8.8,21.2c1.9,9.9,4.2,21.8,8.4,31.9l0.6-1.5c1.8-4.8,3.4-9,6.4-9c2.9,0.1,4.1,4.2,5.5,8.8c2,6.7,4.5,15,12.3,18.3   h4.5l6.1-35.8h-35.6l2.9-16.5h29.5l5.5-32.7h-29.5l2.9-15.3L168.7,39.1L168.7,39.1L168.7,39.1L168.7,39.1z"
   id="path18"
   style="fill:#116789;fill-opacity:1" />
	<path
   class="st0"
   d="M108.2,73.2L108.2,73.2c-2,0-5,11.5-7,19.2c-4,15.3-9.1,35-19.5,47h31.7c5.1-2.5,8.1-7.3,10.4-12.2   c-5.2-11.1-7.9-24.6-10-35.7C112.3,84.3,110.2,73.3,108.2,73.2z"
   id="path20"
   style="fill:#116789;fill-opacity:1" />
</g>
<g
   id="g30">
	<polygon
   class="st0"
   points="266.6,139.1 266.6,139.3 266.8,139.3  "
   id="polygon24" />
	<path
   class="st0"
   d="M333.9,105.2c-7.4-18.7-10.9-38.3-14.3-57.3l-0.5-2.6c-2.7-15.5-5-17.9-5.7-18.3c-0.9,0.3-3.6,3.1-7.9,20.8   l-0.1,0.4c-1.3,5.4-2.6,11-3.8,16.5c-5.9,26.7-12,54.3-31.5,74.7h32.3L314.5,60h0.8l2.7,79.4h25.6l4.1-10.4   C341.3,121.3,336.8,112.6,333.9,105.2L333.9,105.2z"
   id="path26"
   style="fill:#116789;fill-opacity:1" />
	<path
   class="st0"
   d="M370.4,3.9L342.3,77h-0.8l-4-73.1h-47.4l-22.8,131.6c18.2-19.4,24.1-46.1,29.8-71.9c1.2-5.5,2.5-11.2,3.8-16.6   l0.1-0.4c3.7-15.1,7.1-24.4,12.6-24.4s8,8.9,10.3,22.3l0.4,2.5c3.5,19.6,6.8,38.2,14,56.4c3.3,8.5,7.3,15.2,11.6,20.5L375.3,60h0.6   l-14.6,74.8c2.6,1.8,5.1,3.3,7.5,4.5h30.8L423,3.9H370.4z"
   id="path28"
   style="fill:#116789;fill-opacity:1" />
</g>
<g
   id="g36">
	<path
   class="st1"
   d="M127.6,127.1c-0.5,1.3-1.1,2.7-1.8,4.1c1.7,3,3.6,5.8,5.9,8.2h5.1C133,136.3,130,132,127.6,127.1z"
   id="path32"
   style="fill:#000000;fill-opacity:0" />
	<path
   class="st1"
   d="M108.2,73.2L108.2,73.2c1.9,0.1,4.1,11.1,5.5,18.3c2.2,11.1,4.8,24.6,10,35.7c0.7-1.5,1.3-3,1.9-4.5   c-4.2-10.1-6.5-22-8.4-31.9c-2.5-13.1-4.1-20.9-8.8-21.2c-4.9-0.2-7,8.1-10.6,21.8c-3.4,13.2-7.8,29.8-15.5,41.3l-1.1,6.6h0.5   c10.4-12,15.5-31.7,19.5-47C103.2,84.8,106.2,73.2,108.2,73.2z"
   id="path34"
   style="fill:#000000;fill-opacity:0" />
</g>
</svg>